<svg id="Camada_1" data-name="Camada 1" xmlns="http://www.w3.org/2000/svg" viewBox="0 0 237.14 176.57"><defs><style>.cls-1{opacity:0.15;}.cls-2{fill:#fff;}</style></defs><title>icone-instalacao</title><g class="cls-1"><path d="M228.46,30.21a20.64,20.64,0,0,0-14.09-13.93,2.3,2.3,0,0,0,0,1.59,56.59,56.59,0,0,1,0,16.79c-2.08,12.49-12.28,20.79-25.12,20.79q-70.59,0-141.19,0c-.72,0-1.44,0-2.16-.05a24.2,24.2,0,0,1-13-4.62A24.53,24.53,0,0,1,22.44,30c0-4.56-.25-9.13.62-13.75A20.33,20.33,0,0,0,7.92,35.86q-.25,19.45,0,38.91c.12,9.8,6,17.3,15.38,20,4.35,1.26,8.86.76,13.31.83.94,0,.93-.76,1.07-1.35.55-2.31,1.2-4.6,1.58-6.94.65-3.92,3-6.38,6.35-8.18,5.68-3,11.82-3.94,18.15-3.94H176.18A38.31,38.31,0,0,1,191.58,78c4.47,1.93,7.9,4.67,8,10.13,0,2,.57,4,.78,6,.12,1.12.49,1.65,1.74,1.58,2-.11,4,0,6.05,0,6.92-.22,12.66-2.81,17-8.38,2.16-2.78,3-6.1,4.18-9.29V33C228.63,32.18,228.77,31.12,228.46,30.21Z"/><path d="M48.41,47.19q35.58,0,71.14,0,34.59,0,69.19,0c7,0,12.75-2.72,15.84-9.22s2.2-13.61,1.07-20.54c-.28-1.67-1.1-2.21-2.91-2.2q-42,.11-83.89,0-42.28,0-84.55,0c-1.54,0-2.32.4-2.68,1.93a38.49,38.49,0,0,0-.16,17.76C33.3,42.67,39.94,47.18,48.41,47.19ZM38.79,22.72a10.43,10.43,0,0,1,1.94-.08H194.05a12.46,12.46,0,0,1,1.73,0c1.19.16,2,.73,2.05,2.07a2,2,0,0,1-2,2.09,15.67,15.67,0,0,1-1.94,0H41a11.83,11.83,0,0,1-2.15-.08,2.05,2.05,0,0,1,0-4.06Zm0,13a10.43,10.43,0,0,1,1.94-.09H194.26a8.83,8.83,0,0,1,1.93.11,2,2,0,0,1,0,4,10.23,10.23,0,0,1-2.15.12H41a11.83,11.83,0,0,1-2.15-.08,2,2,0,0,1-1.77-2.12A2,2,0,0,1,38.78,35.71Z"/><path d="M186.84,83a36.49,36.49,0,0,0-12.65-2.44q-53.29-.14-106.6-.12c-5.87,0-11.63.69-17.08,3.1-2.87,1.27-5,3.07-5.26,6.47-.15,1.78-.6,3.54-1,5.63h145c4.7,0,4.4,0,4-4.73C192.91,86.56,190.59,84.38,186.84,83Z"/><path d="M67.79,113.64a3.87,3.87,0,0,0,0-5.91c-1.76-1.66-4-1.59-6,.24a15.46,15.46,0,0,0-4.29,6.62c-2,6-.37,11.3,3,16.27,1.17,1.72,2.5,3.33,3.06,5.4,1.08,4-.06,7.65-1.64,11.26-1.19,2.73-3.07,5-4.6,7.52a4.1,4.1,0,0,0,3.29,6.3,4.79,4.79,0,0,0,3.54-1.78c.66-.86,1.34-1.7,1.92-2.6,5.93-9.15,10.09-19.81.87-31.61C64.15,121.6,64.31,117,67.79,113.64Z"/><path d="M104.12,113.64a3.87,3.87,0,0,0,0-5.92c-1.75-1.65-4-1.58-6,.25a15.44,15.44,0,0,0-4.28,6.62c-2,6-.37,11.3,3,16.27,1.18,1.72,2.5,3.33,3.06,5.4,1.08,4-.06,7.65-1.64,11.26-1.19,2.73-3.06,5-4.6,7.52a4.1,4.1,0,0,0,3.3,6.3,4.74,4.74,0,0,0,3.53-1.79c.66-.85,1.34-1.69,1.93-2.59,5.9-9.12,10.1-19.8.87-31.61C100.49,121.6,100.64,117,104.12,113.64Z"/><path d="M140.46,113.64a3.86,3.86,0,0,0,0-5.91c-1.76-1.67-3.95-1.59-6,.24a15.4,15.4,0,0,0-4.29,6.62c-2,6-.38,11.3,3.05,16.27a18.26,18.26,0,0,1,3.06,5.4c1.08,3.92,0,7.52-1.55,11.07-1.19,2.8-3.11,5.15-4.69,7.71a4.11,4.11,0,0,0,3.47,6.3c.25-.06.67-.15,1.08-.26,2-.51,2.91-2.27,3.93-3.79,6.29-9.33,10.34-20.21,1.15-31.94C136.8,121.58,137,117,140.46,113.64Z"/><path d="M176.79,113.64a3.89,3.89,0,0,0,0-5.93c-1.76-1.65-4-1.58-6,.29a15.56,15.56,0,0,0-5.07,10.63c-.35,4.79,1.41,8.89,4.16,12.63,1.83,2.49,3.32,5.06,3.17,8.11a15.21,15.21,0,0,1-.73,4.62c-1.15,4-3.42,7.4-5.77,10.78a4,4,0,0,0,.85,5.74,4.17,4.17,0,0,0,5.76-.91,25.66,25.66,0,0,0,2-2.58c6-9.22,10.08-19.94.92-31.65C173.16,121.61,173.29,117,176.79,113.64Z"/></g><path class="cls-2" d="M99.87,74.47A7.94,7.94,0,0,0,102.18,77c.35.26.36.39,0,.63A14.58,14.58,0,0,0,99.53,80c-.37.4-.59.44-1,0-2.81-2.83-5.66-5.63-8.48-8.45a1,1,0,0,0-1-.32c-10,2-18.76-.45-26.22-7.43a1.88,1.88,0,0,0-.23-.16,6.16,6.16,0,0,1-1.89-1.88,27.75,27.75,0,0,1-6.1-13c-.18-.95-.1-1.92-.29-2.87V41.21a26.38,26.38,0,0,1,1.1-6,17.85,17.85,0,0,1,.92-2.47c.29-.59.46-.64.94-.17,1.07,1,2.09,2.07,3.13,3.11,1.75,1.74,3.46,3.51,5.31,5.16l.14.14c1.85,1.9,3.73,3.76,5.62,5.62a10.27,10.27,0,0,0,17.66-4.5,10,10,0,0,0-.91-6.78,10.17,10.17,0,0,0-1.87-2.6c-2.05-2.05-4-4.16-6.17-6.14-2.85-2.66-5.53-5.49-8.32-8.22-.28-.28-.76-.58-.15-1a12.27,12.27,0,0,1,2.62-1c1-.25,2-.5,3-.69l1.79-.33c2-.15,4-.09,6-.1h.25c1.2.12,2.38.3,3.56.53.77.2,1.54.36,2.3.6,1,.32,2,.71,3,1.12.37.15.71.34,1.08.5a27.84,27.84,0,0,1,8.51,6.23A28.8,28.8,0,0,1,110.24,35a30.81,30.81,0,0,1,1.21,11.12,20.94,20.94,0,0,1-.65,3.93,1.39,1.39,0,0,1-.44.72c-.51.46-1,1-1.48,1.45-1.06,1-2.09,2.07-3.12,3.12-1.31,1.38-2.82,2.54-4.2,3.83a11,11,0,0,0-3.65,7.71,12,12,0,0,0,.75,5,8.24,8.24,0,0,0,.7,1.47A3.07,3.07,0,0,1,99.87,74.47Z"/><path class="cls-2" d="M160.1,36.93c.47-.62.81-.41,1.3.07q9.3,9.28,18.64,18.51a10.22,10.22,0,0,1,2,2.57c.58.42.55,1.09.68,1.7a3.44,3.44,0,0,0,.06.63,11.71,11.71,0,0,1-.28,3.18,10.17,10.17,0,0,1-2.64,3.84q-10.61,10.47-21.16,21c-.46.46-.67.41-1.1,0-7.31-7.22-14.52-14.54-22-21.63a1.66,1.66,0,0,0-1.25-.5c-4.31,0-8.61,0-12.92,0a1.29,1.29,0,0,0-1,.4c-2,1.9-4,3.75-6,5.67a6.74,6.74,0,0,1-11.31-3.14c0-.06-.06-.12-.09-.19-.43-2.63.08-4.91,2.28-6.67a86.18,86.18,0,0,0,6.92-6.59,21.44,21.44,0,0,1,2-1.88,7.58,7.58,0,0,1,3.58-1.06c8.08-.28,16.17-.1,24.25-.07,1.8,0,1.54.25,3.1-1.3,2.62-2.6,5.18-5.26,7.84-7.81,2.16-2.07,4.28-4.19,6.41-6.29A1.5,1.5,0,0,1,160.1,36.93Z"/><path class="cls-2" d="M130.31,89.74a10.59,10.59,0,0,0-7.75-8.13,8.78,8.78,0,0,0-3.88-.31.68.68,0,0,1-.79-.42,9.68,9.68,0,0,0-2.07-2.52c-.18-.16-.44-.29,0-.51a23.49,23.49,0,0,0,5.1-4.43,5.53,5.53,0,0,1,5-2,47.55,47.55,0,0,0,5.34,0,1.37,1.37,0,0,1,1.07.42q17.91,17.82,35.82,35.63a14.62,14.62,0,0,1-8,24.85,14.37,14.37,0,0,1-12.89-4.07l-1.54-1.47a.68.68,0,0,1-.48-.28c-1.89-1.9-3.82-3.77-5.68-5.7-.24-.39,0-.67.21-1a22.64,22.64,0,0,0,2-2.5,10.25,10.25,0,0,0,1.55-6.8,10.4,10.4,0,0,0-4.81-7.71,1.35,1.35,0,0,1-.68-1.29,10.39,10.39,0,0,0-6.34-9.81C130.4,91.34,130.15,90.91,130.31,89.74Z"/><path class="cls-2" d="M128.55,123.7A6,6,0,0,1,124,123a5.56,5.56,0,0,1-2.12-7.06c.26-.57.54-1.13.89-1.86l-1.83.84a5.59,5.59,0,0,1-7.39-7.6c.24-.51.49-1,.81-1.67-.81.38-1.46.7-2.13,1a5.57,5.57,0,0,1-7.62-3.91A5.46,5.46,0,0,1,105,99.1c.26-.56.54-1.11.89-1.82l-1.87.86a5.47,5.47,0,0,1-4.16.27,5.59,5.59,0,0,1-2.18-9.32c2.23-2.28,4.51-4.51,6.79-6.73a5.58,5.58,0,0,1,6.21-1.13,5.51,5.51,0,0,1,3.39,5.38,12.14,12.14,0,0,1-.75,3,2.26,2.26,0,0,0-.14.92c.88-.86,1.74-1.74,2.65-2.57a5.67,5.67,0,0,1,9.21,2.46,5.81,5.81,0,0,1-.66,4.79c0,.53-.47.85-.73,1.41,2.84-1.29,5.44-1.24,7.73,1a5.83,5.83,0,0,1,1,6.32A14.06,14.06,0,0,1,131,106a10.15,10.15,0,0,1,3.31.17,5.73,5.73,0,0,1,3,9c-1.76,2.11-3.54,4.2-5.3,6.31a6.65,6.65,0,0,1-2.72,2.12A1,1,0,0,1,128.55,123.7Z"/></svg>