<svg id="Camada_1" data-name="Camada 1" xmlns="http://www.w3.org/2000/svg" viewBox="0 0 237.14 176.57"><defs><style>.cls-1{opacity:0.15;}.cls-2{fill:#fff;}</style></defs><title>icone-assistencia </title><g class="cls-1"><path d="M228.46,30.21a20.64,20.64,0,0,0-14.09-13.93,2.3,2.3,0,0,0,0,1.59,56.59,56.59,0,0,1,0,16.79c-2.08,12.49-12.28,20.79-25.12,20.79q-70.59,0-141.19,0c-.72,0-1.44,0-2.16-.05a24.2,24.2,0,0,1-13-4.62A24.53,24.53,0,0,1,22.44,30c0-4.56-.25-9.13.62-13.75A20.33,20.33,0,0,0,7.92,35.86q-.25,19.45,0,38.91c.12,9.8,6,17.3,15.38,20,4.35,1.26,8.86.76,13.31.83.94,0,.93-.76,1.07-1.35.55-2.31,1.2-4.6,1.58-6.94.65-3.92,3-6.38,6.35-8.18,5.68-3,11.82-3.94,18.15-3.94H176.18A38.31,38.31,0,0,1,191.58,78c4.47,1.93,7.9,4.67,8,10.13,0,2,.57,4,.78,6,.12,1.12.49,1.65,1.74,1.58,2-.11,4,0,6.05,0,6.92-.22,12.66-2.81,17-8.38,2.16-2.78,3-6.1,4.18-9.29V33C228.63,32.18,228.77,31.12,228.46,30.21Z"/><path d="M48.41,47.19q35.58,0,71.14,0,34.59,0,69.19,0c7,0,12.75-2.72,15.84-9.22s2.2-13.61,1.07-20.54c-.28-1.67-1.1-2.21-2.91-2.2q-42,.11-83.89,0-42.28,0-84.55,0c-1.54,0-2.32.4-2.68,1.93a38.49,38.49,0,0,0-.16,17.76C33.3,42.67,39.94,47.18,48.41,47.19ZM38.79,22.72a10.43,10.43,0,0,1,1.94-.08H194.05a12.46,12.46,0,0,1,1.73,0c1.19.16,2,.73,2.05,2.07a2,2,0,0,1-2,2.09,15.67,15.67,0,0,1-1.94,0H41a11.83,11.83,0,0,1-2.15-.08,2.05,2.05,0,0,1,0-4.06Zm0,13a10.43,10.43,0,0,1,1.94-.09H194.26a8.83,8.83,0,0,1,1.93.11,2,2,0,0,1,0,4,10.23,10.23,0,0,1-2.15.12H41a11.83,11.83,0,0,1-2.15-.08,2,2,0,0,1-1.77-2.12A2,2,0,0,1,38.78,35.71Z"/><path d="M186.84,83a36.49,36.49,0,0,0-12.65-2.44q-53.29-.14-106.6-.12c-5.87,0-11.63.69-17.08,3.1-2.87,1.27-5,3.07-5.26,6.47-.15,1.78-.6,3.54-1,5.63h145c4.7,0,4.4,0,4-4.73C192.91,86.56,190.59,84.38,186.84,83Z"/><path d="M67.79,113.64a3.87,3.87,0,0,0,0-5.91c-1.76-1.66-4-1.59-6,.24a15.46,15.46,0,0,0-4.29,6.62c-2,6-.37,11.3,3,16.27,1.17,1.72,2.5,3.33,3.06,5.4,1.08,4-.06,7.65-1.64,11.26-1.19,2.73-3.07,5-4.6,7.52a4.1,4.1,0,0,0,3.29,6.3,4.79,4.79,0,0,0,3.54-1.78c.66-.86,1.34-1.7,1.92-2.6,5.93-9.15,10.09-19.81.87-31.61C64.15,121.6,64.31,117,67.79,113.64Z"/><path d="M104.12,113.64a3.87,3.87,0,0,0,0-5.92c-1.75-1.65-4-1.58-6,.25a15.44,15.44,0,0,0-4.28,6.62c-2,6-.37,11.3,3,16.27,1.18,1.72,2.5,3.33,3.06,5.4,1.08,4-.06,7.65-1.64,11.26-1.19,2.73-3.06,5-4.6,7.52a4.1,4.1,0,0,0,3.3,6.3,4.74,4.74,0,0,0,3.53-1.79c.66-.85,1.34-1.69,1.93-2.59,5.9-9.12,10.1-19.8.87-31.61C100.49,121.6,100.64,117,104.12,113.64Z"/><path d="M140.46,113.64a3.86,3.86,0,0,0,0-5.91c-1.76-1.67-3.95-1.59-6,.24a15.4,15.4,0,0,0-4.29,6.62c-2,6-.38,11.3,3.05,16.27a18.26,18.26,0,0,1,3.06,5.4c1.08,3.92,0,7.52-1.55,11.07-1.19,2.8-3.11,5.15-4.69,7.71a4.11,4.11,0,0,0,3.47,6.3c.25-.06.67-.15,1.08-.26,2-.51,2.91-2.27,3.93-3.79,6.29-9.33,10.34-20.21,1.15-31.94C136.8,121.58,137,117,140.46,113.64Z"/><path d="M176.79,113.64a3.89,3.89,0,0,0,0-5.93c-1.76-1.65-4-1.58-6,.29a15.56,15.56,0,0,0-5.07,10.63c-.35,4.79,1.41,8.89,4.16,12.63,1.83,2.49,3.32,5.06,3.17,8.11a15.21,15.21,0,0,1-.73,4.62c-1.15,4-3.42,7.4-5.77,10.78a4,4,0,0,0,.85,5.74,4.17,4.17,0,0,0,5.76-.91,25.66,25.66,0,0,0,2-2.58c6-9.22,10.08-19.94.92-31.65C173.16,121.61,173.29,117,176.79,113.64Z"/></g><path class="cls-2" d="M188.93,82.11a10.35,10.35,0,0,0-1.74-5c-2.09-3-5.09-4.1-8.56-4.23-2.3-.08-4.61,0-6.91,0a8.77,8.77,0,0,1-7-14.24,35.21,35.21,0,0,1,3.67-4,28.43,28.43,0,0,0,3.11-3.29,9.47,9.47,0,0,0,1.64-8.69,8.27,8.27,0,0,0-1-2.29,23.65,23.65,0,0,0-9-8.2,9.11,9.11,0,0,0-10.08.95A29.21,29.21,0,0,0,150,36c-1.27,1.28-2.47,2.62-3.84,3.79-5.15,4.4-12.85.89-14-4.74a31,31,0,0,1-.41-6.38,36.8,36.8,0,0,0-.13-4.81,9.58,9.58,0,0,0-7.59-8.2,33.27,33.27,0,0,0-9.61-.13,9.82,9.82,0,0,0-8.76,9.26c-.23,2.73-.18,5.46-.22,8.2A8.57,8.57,0,0,1,97,41.52a9,9,0,0,1-6.73-2.71c-1.87-1.76-3.58-3.7-5.56-5.32-3.3-2.7-7-3.62-10.89-1.56a21.12,21.12,0,0,0-9.21,9.5,8.75,8.75,0,0,0-.37,7,10.26,10.26,0,0,0,2.42,3.86c1.75,1.78,3.52,3.54,5.24,5.35a8.1,8.1,0,0,1,2.45,7c-.74,4.88-4.13,7.8-9.07,7.93-2.68.08-5.37-.12-8.05.13a9.62,9.62,0,0,0-8.84,8.19,33.05,33.05,0,0,0-.1,9c.46,3.94,2.47,6.78,6.37,8.06a14.93,14.93,0,0,0,4,.62c2.65.09,5.32.07,8,.42a8.78,8.78,0,0,1,4.82,15.16c-1.61,1.61-3.24,3.2-4.86,4.81a10.23,10.23,0,0,0-2.35,3.57c-1.14,3-1.3,5.87.65,8.56A37.12,37.12,0,0,0,73,139.24a7.82,7.82,0,0,0,5.69,1.52,11,11,0,0,0,6.46-3.15c1.81-1.72,3.57-3.5,5.37-5.22,5.09-4.85,12.51-1.35,14.12,3.15a12,12,0,0,1,.56,5.68c-.47,3.54.57,6.72,2,9.85a8.14,8.14,0,0,0,4.14,4.21,16.21,16.21,0,0,0,5.59,1.45H119a22.54,22.54,0,0,0,7.22-1.76,8,8,0,0,0,4.59-4.95,15.93,15.93,0,0,0,.72-5.82,39.79,39.79,0,0,1,0-5.46,9.59,9.59,0,0,1,4.07-7.2c.5-.35,1-.66,1.56-1l-.29-.27a70.11,70.11,0,0,1-5.5-4.85,5.67,5.67,0,0,0-5.29-1.59,41.53,41.53,0,0,1-12,.6,37,37,0,0,1-24.87-13C79.07,99.56,77,86,82.44,71.57c7.24-19.14,27-27.31,45.25-23.46,9.23,2,16.5,7.22,22.14,14.71A35.77,35.77,0,0,1,157.09,82a47.39,47.39,0,0,1-.39,8.75A12,12,0,0,0,158.48,99c1.27,1.9,3.14,3.15,4.81,4.62.28.24.38-.05.49-.19a11.18,11.18,0,0,1,10-4.24,35.27,35.27,0,0,0,6.25-.1,9.77,9.77,0,0,0,8.68-8.05A30.93,30.93,0,0,0,188.93,82.11Z"/><path class="cls-2" d="M172.16,125.48c-8-8-16.13-16-24.23-23.93a16.76,16.76,0,0,1-1.46-1.58,3.38,3.38,0,0,1-.69-3.1c.12-.49.27-1,.42-1.45a28.74,28.74,0,0,0-12.49-34.48A25.71,25.71,0,0,0,122.49,57a27.78,27.78,0,0,0-10.95,1.13l.56.67c2.13,2.42,4.47,4.62,6.77,6.86a38.19,38.19,0,0,1,5.5,5.87c2.88,4.29,3.64,8.83,1.38,13.61A16.44,16.44,0,0,1,118,93a12.83,12.83,0,0,1-10,.72,16.34,16.34,0,0,1-6.72-4.28c-3.23-3.32-6.41-6.68-9.62-10-.19-.19-.34-.65-.72-.42s-1,.32-1.08.94a31.29,31.29,0,0,0,.19,13c2.47,9.76,8.72,16.35,17.72,20.38,6.3,2.82,12.86,2.68,19.3.49a6.58,6.58,0,0,1,7.66,1.9c7.86,8.16,16,16.08,24,24a10.13,10.13,0,0,0,6.37,3.31c4.11.3,7-1.83,9.2-5a8.33,8.33,0,0,0,.39-9.36A14.21,14.21,0,0,0,172.16,125.48Zm-6.35,12.6a5.1,5.1,0,0,1-5-4.87,4.77,4.77,0,0,1,5-5c2.82,0,4.92,1.59,4.95,4.95A5,5,0,0,1,165.81,138.08Z"/></svg>