<svg id="Camada_1" data-name="Camada 1" xmlns="http://www.w3.org/2000/svg" viewBox="0 0 237.14 176.57"><defs><style>.cls-1{opacity:0.15;}.cls-2{fill:#fff;}</style></defs><title>icone-contrato</title><g class="cls-1"><path d="M228.46,30.21a20.64,20.64,0,0,0-14.09-13.93,2.3,2.3,0,0,0,0,1.59,56.59,56.59,0,0,1,0,16.79c-2.08,12.49-12.28,20.79-25.12,20.79q-70.59,0-141.19,0c-.72,0-1.44,0-2.16-.05a24.2,24.2,0,0,1-13-4.62A24.53,24.53,0,0,1,22.44,30c0-4.56-.25-9.13.62-13.75A20.33,20.33,0,0,0,7.92,35.86q-.25,19.45,0,38.91c.12,9.8,6,17.3,15.38,20,4.35,1.26,8.86.76,13.31.83.94,0,.93-.76,1.07-1.35.55-2.31,1.2-4.6,1.58-6.94.65-3.92,3-6.38,6.35-8.18,5.68-3,11.82-3.94,18.15-3.94H176.18A38.31,38.31,0,0,1,191.58,78c4.47,1.93,7.9,4.67,8,10.13,0,2,.57,4,.78,6,.12,1.12.49,1.65,1.74,1.58,2-.11,4,0,6.05,0,6.92-.22,12.66-2.81,17-8.38,2.16-2.78,3-6.1,4.18-9.29V33C228.63,32.18,228.77,31.12,228.46,30.21Z"/><path d="M48.41,47.19q35.58,0,71.14,0,34.59,0,69.19,0c7,0,12.75-2.72,15.84-9.22s2.2-13.61,1.07-20.54c-.28-1.67-1.1-2.21-2.91-2.2q-42,.11-83.89,0-42.28,0-84.55,0c-1.54,0-2.32.4-2.68,1.93a38.49,38.49,0,0,0-.16,17.76C33.3,42.67,39.94,47.18,48.41,47.19ZM38.79,22.72a10.43,10.43,0,0,1,1.94-.08H194.05a12.46,12.46,0,0,1,1.73,0c1.19.16,2,.73,2.05,2.07a2,2,0,0,1-2,2.09,15.67,15.67,0,0,1-1.94,0H41a11.83,11.83,0,0,1-2.15-.08,2.05,2.05,0,0,1,0-4.06Zm0,13a10.43,10.43,0,0,1,1.94-.09H194.26a8.83,8.83,0,0,1,1.93.11,2,2,0,0,1,0,4,10.23,10.23,0,0,1-2.15.12H41a11.83,11.83,0,0,1-2.15-.08,2,2,0,0,1-1.77-2.12A2,2,0,0,1,38.78,35.71Z"/><path d="M186.84,83a36.49,36.49,0,0,0-12.65-2.44q-53.29-.14-106.6-.12c-5.87,0-11.63.69-17.08,3.1-2.87,1.27-5,3.07-5.26,6.47-.15,1.78-.6,3.54-1,5.63h145c4.7,0,4.4,0,4-4.73C192.91,86.56,190.59,84.38,186.84,83Z"/><path d="M67.79,113.64a3.87,3.87,0,0,0,0-5.91c-1.76-1.66-4-1.59-6,.24a15.46,15.46,0,0,0-4.29,6.62c-2,6-.37,11.3,3,16.27,1.17,1.72,2.5,3.33,3.06,5.4,1.08,4-.06,7.65-1.64,11.26-1.19,2.73-3.07,5-4.6,7.52a4.1,4.1,0,0,0,3.29,6.3,4.79,4.79,0,0,0,3.54-1.78c.66-.86,1.34-1.7,1.92-2.6,5.93-9.15,10.09-19.81.87-31.61C64.15,121.6,64.31,117,67.79,113.64Z"/><path d="M104.12,113.64a3.87,3.87,0,0,0,0-5.92c-1.75-1.65-4-1.58-6,.25a15.44,15.44,0,0,0-4.28,6.62c-2,6-.37,11.3,3,16.27,1.18,1.72,2.5,3.33,3.06,5.4,1.08,4-.06,7.65-1.64,11.26-1.19,2.73-3.06,5-4.6,7.52a4.1,4.1,0,0,0,3.3,6.3,4.74,4.74,0,0,0,3.53-1.79c.66-.85,1.34-1.69,1.93-2.59,5.9-9.12,10.1-19.8.87-31.61C100.49,121.6,100.64,117,104.12,113.64Z"/><path d="M140.46,113.64a3.86,3.86,0,0,0,0-5.91c-1.76-1.67-3.95-1.59-6,.24a15.4,15.4,0,0,0-4.29,6.62c-2,6-.38,11.3,3.05,16.27a18.26,18.26,0,0,1,3.06,5.4c1.08,3.92,0,7.52-1.55,11.07-1.19,2.8-3.11,5.15-4.69,7.71a4.11,4.11,0,0,0,3.47,6.3c.25-.06.67-.15,1.08-.26,2-.51,2.91-2.27,3.93-3.79,6.29-9.33,10.34-20.21,1.15-31.94C136.8,121.58,137,117,140.46,113.64Z"/><path d="M176.79,113.64a3.89,3.89,0,0,0,0-5.93c-1.76-1.65-4-1.58-6,.29a15.56,15.56,0,0,0-5.07,10.63c-.35,4.79,1.41,8.89,4.16,12.63,1.83,2.49,3.32,5.06,3.17,8.11a15.21,15.21,0,0,1-.73,4.62c-1.15,4-3.42,7.4-5.77,10.78a4,4,0,0,0,.85,5.74,4.17,4.17,0,0,0,5.76-.91,25.66,25.66,0,0,0,2-2.58c6-9.22,10.08-19.94.92-31.65C173.16,121.61,173.29,117,176.79,113.64Z"/></g><path class="cls-2" d="M144.2,116.93c-2.64-.51-4-2.49-4.78-4.94-1.81-5.4-3.63-10.8-5.59-16.15a8.69,8.69,0,0,1,.42-7C137.76,81,141.12,73,144.56,65.05a8.55,8.55,0,0,0,1-3.45c0-12.22.08-24.44-.06-36.66-.07-6-3.94-9.63-9.84-9.65-16,0-31.94,0-47.9-.06-2,0-2.58.49-2.55,2.54q.19,11.72,0,23.44c-.09,6.67-3.89,10.34-10.56,10.38-7.37,0-14.76.2-22.12-.08-3.19-.12-3.67,1-3.64,3.82.14,13.65.06,27.3.06,41s0,27.52,0,41.28c0,6.49,3.51,10.16,9.88,10.18q38.31.09,76.64,0c6.13,0,9.87-3.75,10-9.87.13-6.27,0-12.55,0-18.82C145.5,118.08,145.7,117.21,144.2,116.93ZM71.32,61.59c8.58,0,17.16,0,25.74,0s17.16,0,25.73,0c2.46,0,4.66.44,4.57,3.38-.08,2.74-2.28,3.1-4.55,3.1q-25.74,0-51.48,0C69,68.05,67,67.6,67,64.81S69,61.58,71.32,61.59ZM67,95.89c0-2.79,2-3.26,4.37-3.25,5.49,0,11,0,16.48,0s11.22,0,16.82,0c2.4,0,4.31.73,4.22,3.42-.09,2.49-2,3.08-4.22,3.08q-16.65,0-33.31,0C69,99.13,67,98.68,67,95.89Zm38.29,30.4c-2.31-.07-4.62,0-6.93,0-6.58,0-9.46-2.08-11.79-8.77-4,2.7-7.86,5.22-11.65,7.82-1.8,1.24-3.53,1.51-4.89-.38-1.5-2.09-.46-3.69,1.42-5,4.1-2.75,8.34-5.32,12.26-8.31,3.73-2.83,9.34-.94,9.36,4.11,0,3,1.79,4.23,4.75,4.1,2.52-.12,5.06,0,7.59,0,2.17,0,3.76,1.11,3.72,3.3S107.47,126.35,105.24,126.29Zm16.43,0c-3,0-6.24.52-6.26-3.06,0-3.73,3.26-3.38,5.89-3.33s5.92-.58,5.85,3.32S123.6,126.08,121.67,126.26Zm5.51-44.78c-.75,1.93-2.36,2-4.08,2-8.68,0-17.36,0-26,0s-17.15,0-25.72,0c-2.3,0-4.39-.3-4.4-3.13s2.17-3.13,4.41-3.13q25.89,0,51.76,0C126.5,77.24,128.12,79,127.18,81.48Z"/><path class="cls-2" d="M182,53.84c-6.5-2.87-13.08-5.57-19.55-8.51-1.84-.84-2.31-.25-3,1.34q-7.83,18.4-15.89,36.72c-.8,1.81-.44,2.44,1.22,3.14,6.46,2.69,12.91,5.41,19.28,8.3,1.84.84,2.58.58,3.37-1.26,5.22-12.28,10.54-24.52,15.83-36.77.21-.5.43-1,.67-1.53C183.82,54.09,182.66,54.15,182,53.84Z"/><path class="cls-2" d="M74.91,45.15c2.84,0,4-1.28,4-4,0-6.27,0-12.54,0-18.81V17.39L51.08,45.13C59.31,45.13,67.11,45.08,74.91,45.15Z"/><path class="cls-2" d="M178.57,29.87a13,13,0,0,0-14.7,6.62c-.83,1.59-.83,2.36,1.06,3.13C170.69,42,176.36,44.5,182.06,47c5.1,2.22,5.79,1.78,6.16-4,0-.22,0-.44.05-.66A12.85,12.85,0,0,0,178.57,29.87Z"/><path class="cls-2" d="M162.32,101c-6.91-3-13.84-6-20.76-9-1.82-.79-2.27,0-1.74,1.61,1.77,5.28,3.62,10.54,5.43,15.8.34,1,.76,1.4,1.9.87,5-2.36,10.14-4.64,15.22-6.93.64-.29,1.16-.62,1.13-1.42S162.77,101.21,162.32,101Z"/></svg>