<?xml version="1.0" encoding="utf-8"?>
<!-- Generator: Adobe Illustrator 24.0.1, SVG Export Plug-In . SVG Version: 6.00 Build 0)  -->
<svg version="1.1" id="Camada_1" xmlns="http://www.w3.org/2000/svg" xmlns:xlink="http://www.w3.org/1999/xlink" x="0px" y="0px"
	 viewBox="0 0 50 50" style="enable-background:new 0 0 50 50;" xml:space="preserve">
<style type="text/css">
	.st0{fill:#4989F5;}
	.st1{fill:url(#SVGID_1_);}
	.st2{fill:#3C4BA6;}
	.st3{fill:#7BABF7;}
	.st4{fill:#3F51B5;}
	.st5{fill-rule:evenodd;clip-rule:evenodd;fill:#709BE0;}
	.st6{fill-rule:evenodd;clip-rule:evenodd;fill:#3C4BA6;}
	.st7{fill:#FFFFFF;}
</style>
<g>
	<g>
		<path class="st0" d="M6.5,15.3h36c0.9,0,1.5,0.7,1.5,1.5v26.1c0,0.9-0.7,1.5-1.5,1.5h-36c-0.9,0-1.5-0.7-1.5-1.5V16.8
			C4.9,16,5.6,15.3,6.5,15.3z"/>
		
			<linearGradient id="SVGID_1_" gradientUnits="userSpaceOnUse" x1="0.9438" y1="51.3078" x2="0.9616" y2="51.3078" gradientTransform="matrix(2185.0801 0 0 -1647.9559 -2057.2708 84582.7578)">
			<stop  offset="3.000000e-02" style="stop-color:#4079D8"/>
			<stop  offset="1" style="stop-color:#4989F5"/>
		</linearGradient>
		<path class="st1" d="M42,15.1H6.9c-1.1,0-1.9,8.4-1.9,9.5l19.2,19.9H42c1.1,0,2-0.9,2-2V17C44,15.9,43.1,15.1,42,15.1z"/>
		<path class="st2" d="M13.8,20.2H25V5.5h-9.5L13.8,20.2z"/>
		<path class="st3" d="M36.2,20.2H25V5.5h9.5L36.2,20.2z M44,8.3L44,8.3C44,8.3,44,8.3,44,8.3z"/>
		<path class="st4" d="M44,8.4L44,8.4c-0.4-1.7-1.8-2.8-3.5-2.8h-6l1.7,14.6h11.2L44,8.4z"/>
		<path class="st3" d="M6,8.3L6,8.3C6,8.3,6,8.3,6,8.3z"/>
		<path class="st3" d="M6,8.4L6,8.4c0.4-1.7,1.8-2.8,3.5-2.8h6l-1.7,14.6H2.7L6,8.4z"/>
	</g>
	<path class="st5" d="M13.9,20.2c0,3.1-2.5,5.6-5.6,5.6s-5.6-2.5-5.6-5.6H13.9z"/>
	<path class="st6" d="M25,20.2c0,3.1-2.5,5.6-5.6,5.6s-5.6-2.5-5.6-5.6H25z"/>
	<path class="st5" d="M36.2,20.2c0,3.1-2.5,5.6-5.6,5.6S25,23.2,25,20.2H36.2z"/>
	<path class="st6" d="M47.3,20.2c0,3.1-2.5,5.6-5.6,5.6s-5.6-2.5-5.6-5.6H47.3z"/>
	<path class="st7" d="M41.7,35.3c0-0.3-0.1-0.5-0.1-0.8h-6.1c0,0.9,0,1.8,0,2.6h3.5c-0.2,0.8-0.6,1.5-1.3,2c0,0,0,0,0,0
		c-0.4,0.3-0.9,0.5-1.4,0.6c-0.5,0.1-1,0.1-1.5,0c-0.5-0.1-1-0.3-1.4-0.6c-0.6-0.5-1.1-1.1-1.4-1.8c0-0.1,0-0.1-0.1-0.2v0l0,0
		c-0.3-0.8-0.3-1.7,0-2.5c0.2-0.6,0.5-1.1,0.9-1.5c1-1,2.5-1.4,3.8-1c0.5,0.2,1,0.4,1.4,0.8l1.2-1.2c0.2-0.2,0.4-0.4,0.6-0.6
		c-0.6-0.6-1.3-1-2.1-1.3c-1.4-0.5-2.9-0.5-4.4,0c0,0-0.1,0-0.1,0.1c-1.5,0.6-2.8,1.7-3.5,3.2c-0.3,0.5-0.4,1.1-0.6,1.6
		c-0.7,3.3,1.4,6.6,4.7,7.5c1.1,0.3,2.2,0.3,3.3,0c1-0.2,1.9-0.7,2.6-1.4c0.8-0.7,1.3-1.7,1.6-2.7C41.7,37.1,41.8,36.2,41.7,35.3
		L41.7,35.3z"/>
</g>
</svg>
