<svg id="Camada_1" data-name="Camada 1" xmlns="http://www.w3.org/2000/svg" viewBox="0 0 237.14 176.57"><defs><style>.cls-1{opacity:0.15;}.cls-2{fill:#fff;}</style></defs><title>icone-manutencao</title><g class="cls-1"><path d="M228.46,30.21a20.64,20.64,0,0,0-14.09-13.93,2.3,2.3,0,0,0,0,1.59,56.59,56.59,0,0,1,0,16.79c-2.08,12.49-12.28,20.79-25.12,20.79q-70.59,0-141.19,0c-.72,0-1.44,0-2.16-.05a24.2,24.2,0,0,1-13-4.62A24.53,24.53,0,0,1,22.44,30c0-4.56-.25-9.13.62-13.75A20.33,20.33,0,0,0,7.92,35.86q-.25,19.45,0,38.91c.12,9.8,6,17.3,15.38,20,4.35,1.26,8.86.76,13.31.83.94,0,.93-.76,1.07-1.35.55-2.31,1.2-4.6,1.58-6.94.65-3.92,3-6.38,6.35-8.18,5.68-3,11.82-3.94,18.15-3.94H176.18A38.31,38.31,0,0,1,191.58,78c4.47,1.93,7.9,4.67,8,10.13,0,2,.57,4,.78,6,.12,1.12.49,1.65,1.74,1.58,2-.11,4,0,6.05,0,6.92-.22,12.66-2.81,17-8.38,2.16-2.78,3-6.1,4.18-9.29V33C228.63,32.18,228.77,31.12,228.46,30.21Z"/><path d="M48.41,47.19q35.58,0,71.14,0,34.59,0,69.19,0c7,0,12.75-2.72,15.84-9.22s2.2-13.61,1.07-20.54c-.28-1.67-1.1-2.21-2.91-2.2q-42,.11-83.89,0-42.28,0-84.55,0c-1.54,0-2.32.4-2.68,1.93a38.49,38.49,0,0,0-.16,17.76C33.3,42.67,39.94,47.18,48.41,47.19ZM38.79,22.72a10.43,10.43,0,0,1,1.94-.08H194.05a12.46,12.46,0,0,1,1.73,0c1.19.16,2,.73,2.05,2.07a2,2,0,0,1-2,2.09,15.67,15.67,0,0,1-1.94,0H41a11.83,11.83,0,0,1-2.15-.08,2.05,2.05,0,0,1,0-4.06Zm0,13a10.43,10.43,0,0,1,1.94-.09H194.26a8.83,8.83,0,0,1,1.93.11,2,2,0,0,1,0,4,10.23,10.23,0,0,1-2.15.12H41a11.83,11.83,0,0,1-2.15-.08,2,2,0,0,1-1.77-2.12A2,2,0,0,1,38.78,35.71Z"/><path d="M186.84,83a36.49,36.49,0,0,0-12.65-2.44q-53.29-.14-106.6-.12c-5.87,0-11.63.69-17.08,3.1-2.87,1.27-5,3.07-5.26,6.47-.15,1.78-.6,3.54-1,5.63h145c4.7,0,4.4,0,4-4.73C192.91,86.56,190.59,84.38,186.84,83Z"/><path d="M67.79,113.64a3.87,3.87,0,0,0,0-5.91c-1.76-1.66-4-1.59-6,.24a15.46,15.46,0,0,0-4.29,6.62c-2,6-.37,11.3,3,16.27,1.17,1.72,2.5,3.33,3.06,5.4,1.08,4-.06,7.65-1.64,11.26-1.19,2.73-3.07,5-4.6,7.52a4.1,4.1,0,0,0,3.29,6.3,4.79,4.79,0,0,0,3.54-1.78c.66-.86,1.34-1.7,1.92-2.6,5.93-9.15,10.09-19.81.87-31.61C64.15,121.6,64.31,117,67.79,113.64Z"/><path d="M104.12,113.64a3.87,3.87,0,0,0,0-5.92c-1.75-1.65-4-1.58-6,.25a15.44,15.44,0,0,0-4.28,6.62c-2,6-.37,11.3,3,16.27,1.18,1.72,2.5,3.33,3.06,5.4,1.08,4-.06,7.65-1.64,11.26-1.19,2.73-3.06,5-4.6,7.52a4.1,4.1,0,0,0,3.3,6.3,4.74,4.74,0,0,0,3.53-1.79c.66-.85,1.34-1.69,1.93-2.59,5.9-9.12,10.1-19.8.87-31.61C100.49,121.6,100.64,117,104.12,113.64Z"/><path d="M140.46,113.64a3.86,3.86,0,0,0,0-5.91c-1.76-1.67-3.95-1.59-6,.24a15.4,15.4,0,0,0-4.29,6.62c-2,6-.38,11.3,3.05,16.27a18.26,18.26,0,0,1,3.06,5.4c1.08,3.92,0,7.52-1.55,11.07-1.19,2.8-3.11,5.15-4.69,7.71a4.11,4.11,0,0,0,3.47,6.3c.25-.06.67-.15,1.08-.26,2-.51,2.91-2.27,3.93-3.79,6.29-9.33,10.34-20.21,1.15-31.94C136.8,121.58,137,117,140.46,113.64Z"/><path d="M176.79,113.64a3.89,3.89,0,0,0,0-5.93c-1.76-1.65-4-1.58-6,.29a15.56,15.56,0,0,0-5.07,10.63c-.35,4.79,1.41,8.89,4.16,12.63,1.83,2.49,3.32,5.06,3.17,8.11a15.21,15.21,0,0,1-.73,4.62c-1.15,4-3.42,7.4-5.77,10.78a4,4,0,0,0,.85,5.74,4.17,4.17,0,0,0,5.76-.91,25.66,25.66,0,0,0,2-2.58c6-9.22,10.08-19.94.92-31.65C173.16,121.61,173.29,117,176.79,113.64Z"/></g><path class="cls-2" d="M107.42,20c.11,3,0,6.08,0,9.12,0,2.49-.82,3.73-3.15,4.54a68.44,68.44,0,0,0-7.26,3c-2.18,1.05-3.62.77-5.34-.93-2.28-2.26-4.54-4.54-6.81-6.8-2-2-4.12-2-6.14,0q-4.86,4.81-9.68,9.68c-2,2-1.93,4.07,0,6,2.25,2.28,4.53,4.53,6.79,6.81,1.74,1.75,2,3.14,1,5.33a75.28,75.28,0,0,0-3,7.38c-.8,2.27-2,3.08-4.46,3.09-3.25,0-6.49,0-9.74,0-2.68,0-4.2,1.53-4.2,4.21,0,4.6,0,9.21,0,13.81,0,2.69,1.51,4.22,4.17,4.23,3.25,0,6.5,0,9.75,0,2.43,0,3.67.8,4.46,3.07a78.81,78.81,0,0,0,3,7.37c1,2.2.76,3.6-1,5.34-2.26,2.27-4.54,4.53-6.79,6.81-2,2-2,4.1,0,6.13q4.77,4.81,9.59,9.6c2,2,4.12,2,6.14,0,2.28-2.25,4.53-4.53,6.81-6.79,1.73-1.72,3.16-2,5.34-1a71.92,71.92,0,0,0,7.37,3.06c2.26.8,3.06,2,3.06,4.47,0,3.2,0,6.41,0,9.62,0,2.77,1.5,4.29,4.23,4.3q6.91,0,13.82,0c2.67,0,4.19-1.52,4.2-4.2,0-3.25,0-6.49,0-9.74,0-2.43.81-3.66,3.09-4.45a76.28,76.28,0,0,0,7.37-3.06c2.12-1,3.58-.74,5.24.91,2.31,2.29,4.59,4.6,6.9,6.88,2,2,4.09,2,6.05,0q4.9-4.86,9.77-9.77c1.89-1.91,1.87-4,0-6-2.26-2.28-4.54-4.53-6.8-6.81-1.81-1.82-2.1-3.26-1-5.55a63.51,63.51,0,0,0,3-7.14c.81-2.33,2.05-3.15,4.54-3.15,3,0,6.09-.09,9.13,0,2.35.09,3.94-.79,4.77-3V70.24c-.83-2.22-2.42-3.1-4.77-3-3,.11-6.08,0-9.12,0-2.5,0-3.74-.82-4.54-3.14a66.81,66.81,0,0,0-3-7.26c-1-2.18-.77-3.64.92-5.35,2.26-2.27,4.54-4.53,6.79-6.8,2.06-2.08,2.05-4.14,0-6.22q-4.74-4.77-9.5-9.5c-2.09-2.08-4.15-2.09-6.23,0l-6.71,6.7c-1.82,1.81-3.26,2.09-5.55,1a64.28,64.28,0,0,0-7-2.92c-2.47-.86-3.25-2-3.26-4.7,0-3-.08-6,0-9,.09-2.35-.8-3.94-3-4.76H110.43C108.22,16.05,107.33,17.64,107.42,20Zm11.15,24.62a33.76,33.76,0,1,1-33.76,33.7A33.93,33.93,0,0,1,118.57,44.62Z"/><path class="cls-2" d="M93.89,74.56a11.26,11.26,0,0,1,2.46.08,3.77,3.77,0,0,1,0,7.47,10.67,10.67,0,0,1-2.46.08c-1.05-.1-1.14.33-1,1.2A26.27,26.27,0,0,0,113.58,104c.91.19,1.27,0,1.18-1a10.67,10.67,0,0,1,.08-2.46,3.78,3.78,0,0,1,7.46,0,11.73,11.73,0,0,1,.09,2.58c-.07,1,.32,1.08,1.14.91a26.29,26.29,0,0,0,20.66-20.68c.18-.85,0-1.19-.93-1.11a13.1,13.1,0,0,1-2.34-.06,3.78,3.78,0,0,1,0-7.51c.89-.11,1.81-.07,2.71-.09.38,0,.79,0,.7-.35s-.11-.7-.16-.94a25.62,25.62,0,0,0-5.6-11.62,26.14,26.14,0,0,0-15-8.86c-.91-.19-1.28,0-1.18,1a10.67,10.67,0,0,1-.08,2.46,3.78,3.78,0,0,1-7.46,0,11.71,11.71,0,0,1-.09-2.58c.07-1-.32-1.07-1.14-.91A26.26,26.26,0,0,0,93,73.44C92.78,74.29,93,74.63,93.89,74.56Zm13-4.45a3.79,3.79,0,0,1,5.44-.81q2.86,1.92,5.64,4a1,1,0,0,0,1.38,0c3.2-2.22,6.43-4.4,9.65-6.59a3.78,3.78,0,0,1,4.18-.32,3.61,3.61,0,0,1,2,3.16,3.78,3.78,0,0,1-1.69,3.38q-6.24,4.27-12.51,8.51a4,4,0,0,1-4.81-.07c-2.76-1.91-5.53-3.83-8.25-5.8A3.83,3.83,0,0,1,106.84,70.11Z"/></svg>