<svg id="Camada_1" data-name="Camada 1" xmlns="http://www.w3.org/2000/svg" viewBox="0 0 237.14 176.57"><defs><style>.cls-1{opacity:0.15;}.cls-2{fill:#fff;}</style></defs><title>icone-limpeza</title><g class="cls-1"><path d="M228.46,30.21a20.64,20.64,0,0,0-14.09-13.93,2.3,2.3,0,0,0,0,1.59,56.59,56.59,0,0,1,0,16.79c-2.08,12.49-12.28,20.79-25.12,20.79q-70.59,0-141.19,0c-.72,0-1.44,0-2.16-.05a24.2,24.2,0,0,1-13-4.62A24.53,24.53,0,0,1,22.44,30c0-4.56-.25-9.13.62-13.75A20.33,20.33,0,0,0,7.92,35.86q-.25,19.45,0,38.91c.12,9.8,6,17.3,15.38,20,4.35,1.26,8.86.76,13.31.83.94,0,.93-.76,1.07-1.35.55-2.31,1.2-4.6,1.58-6.94.65-3.92,3-6.38,6.35-8.18,5.68-3,11.82-3.94,18.15-3.94H176.18A38.31,38.31,0,0,1,191.58,78c4.47,1.93,7.9,4.67,8,10.13,0,2,.57,4,.78,6,.12,1.12.49,1.65,1.74,1.58,2-.11,4,0,6.05,0,6.92-.22,12.66-2.81,17-8.38,2.16-2.78,3-6.1,4.18-9.29V33C228.63,32.18,228.77,31.12,228.46,30.21Z"/><path d="M48.41,47.19q35.58,0,71.14,0,34.59,0,69.19,0c7,0,12.75-2.72,15.84-9.22s2.2-13.61,1.07-20.54c-.28-1.67-1.1-2.21-2.91-2.2q-42,.11-83.89,0-42.28,0-84.55,0c-1.54,0-2.32.4-2.68,1.93a38.49,38.49,0,0,0-.16,17.76C33.3,42.67,39.94,47.18,48.41,47.19ZM38.79,22.72a10.43,10.43,0,0,1,1.94-.08H194.05a12.46,12.46,0,0,1,1.73,0c1.19.16,2,.73,2.05,2.07a2,2,0,0,1-2,2.09,15.67,15.67,0,0,1-1.94,0H41a11.83,11.83,0,0,1-2.15-.08,2.05,2.05,0,0,1,0-4.06Zm0,13a10.43,10.43,0,0,1,1.94-.09H194.26a8.83,8.83,0,0,1,1.93.11,2,2,0,0,1,0,4,10.23,10.23,0,0,1-2.15.12H41a11.83,11.83,0,0,1-2.15-.08,2,2,0,0,1-1.77-2.12A2,2,0,0,1,38.78,35.71Z"/><path d="M186.84,83a36.49,36.49,0,0,0-12.65-2.44q-53.29-.14-106.6-.12c-5.87,0-11.63.69-17.08,3.1-2.87,1.27-5,3.07-5.26,6.47-.15,1.78-.6,3.54-1,5.63h145c4.7,0,4.4,0,4-4.73C192.91,86.56,190.59,84.38,186.84,83Z"/><path d="M67.79,113.64a3.87,3.87,0,0,0,0-5.91c-1.76-1.66-4-1.59-6,.24a15.46,15.46,0,0,0-4.29,6.62c-2,6-.37,11.3,3,16.27,1.17,1.72,2.5,3.33,3.06,5.4,1.08,4-.06,7.65-1.64,11.26-1.19,2.73-3.07,5-4.6,7.52a4.1,4.1,0,0,0,3.29,6.3,4.79,4.79,0,0,0,3.54-1.78c.66-.86,1.34-1.7,1.92-2.6,5.93-9.15,10.09-19.81.87-31.61C64.15,121.6,64.31,117,67.79,113.64Z"/><path d="M104.12,113.64a3.87,3.87,0,0,0,0-5.92c-1.75-1.65-4-1.58-6,.25a15.44,15.44,0,0,0-4.28,6.62c-2,6-.37,11.3,3,16.27,1.18,1.72,2.5,3.33,3.06,5.4,1.08,4-.06,7.65-1.64,11.26-1.19,2.73-3.06,5-4.6,7.52a4.1,4.1,0,0,0,3.3,6.3,4.74,4.74,0,0,0,3.53-1.79c.66-.85,1.34-1.69,1.93-2.59,5.9-9.12,10.1-19.8.87-31.61C100.49,121.6,100.64,117,104.12,113.64Z"/><path d="M140.46,113.64a3.86,3.86,0,0,0,0-5.91c-1.76-1.67-3.95-1.59-6,.24a15.4,15.4,0,0,0-4.29,6.62c-2,6-.38,11.3,3.05,16.27a18.26,18.26,0,0,1,3.06,5.4c1.08,3.92,0,7.52-1.55,11.07-1.19,2.8-3.11,5.15-4.69,7.71a4.11,4.11,0,0,0,3.47,6.3c.25-.06.67-.15,1.08-.26,2-.51,2.91-2.27,3.93-3.79,6.29-9.33,10.34-20.21,1.15-31.94C136.8,121.58,137,117,140.46,113.64Z"/><path d="M176.79,113.64a3.89,3.89,0,0,0,0-5.93c-1.76-1.65-4-1.58-6,.29a15.56,15.56,0,0,0-5.07,10.63c-.35,4.79,1.41,8.89,4.16,12.63,1.83,2.49,3.32,5.06,3.17,8.11a15.21,15.21,0,0,1-.73,4.62c-1.15,4-3.42,7.4-5.77,10.78a4,4,0,0,0,.85,5.74,4.17,4.17,0,0,0,5.76-.91,25.66,25.66,0,0,0,2-2.58c6-9.22,10.08-19.94.92-31.65C173.16,121.61,173.29,117,176.79,113.64Z"/></g><path class="cls-2" d="M135.4,98.58c-1.77,1-3.53,1.94-5.31,2.84a75,75,0,0,1-18.94,6.66,39.47,39.47,0,0,1-4.72.69.7.7,0,0,1-.49-.11l-11.86-7.25s0,0-.07-.1c2.6-1.5,5.12-3.1,7.59-4.82-.85.09-1.68.2-2.53.26a64.94,64.94,0,0,1-7.25,0c-1.79-.08-3.59-.21-5.37-.37a1.27,1.27,0,0,1-.57-.18L63.93,83l-.2-.16L66,82.56a64,64,0,0,0,8.24-1.43,83.21,83.21,0,0,0,22.29-8.79A80.12,80.12,0,0,0,111.84,61c.66-.62,1.3-1.25,1.93-1.89a.42.42,0,0,1,.62-.09l11.08,6.25,16.78,9.46q10,5.63,19.95,11.22c.25.14.26.26.18.51a118.64,118.64,0,0,1-7,16.38,87,87,0,0,1-9.56,14.73,51.64,51.64,0,0,1-7,7.21.7.7,0,0,1-.86.11l-16.44-7.62-.43-.21C126.39,111.26,131.69,105.54,135.4,98.58Z"/><path class="cls-2" d="M120.36,50.77c1.59-1.8,3.18-3.57,4.74-5.36a11.41,11.41,0,0,1,2.94-2.6,9.37,9.37,0,0,1,9.32-.21c1.86.95,3.66,2,5.48,3.06.27.16.4.14.59-.13l19.68-27.72a5.65,5.65,0,0,1,10.3,2A5.91,5.91,0,0,1,173,23.2l-8,18.31c-1.9,4.34-3.78,8.69-5.69,13-.12.27,0,.32.19.42,1.33.74,2.68,1.47,4,2.25a9.49,9.49,0,0,1,4.36,11.05c-.77,2.57-1.57,5.13-2.36,7.69,0,.08-.07.16-.11.27Z"/><path class="cls-2" d="M68.23,56.42a9.15,9.15,0,1,1,9.11,9.16A9.15,9.15,0,0,1,68.23,56.42Z"/><path class="cls-2" d="M72.79,38.11a4.57,4.57,0,1,1-4.58-4.58A4.59,4.59,0,0,1,72.79,38.11Z"/></svg>