<svg id="Camada_1" data-name="Camada 1" xmlns="http://www.w3.org/2000/svg" viewBox="0 0 80 80"><defs><style>.cls-1{fill-rule:evenodd;}</style></defs><title>localizacao </title><path class="cls-1" d="M40,75.12c6.3,0,11.72-.57,15.93-2.39,3.31-1.2,5.42-3,5.42-4.79s-2.11-3.6-5.42-5.13A51.18,51.18,0,0,0,45.1,60.7l-.28.62a24.06,24.06,0,0,1-2.11,3.6L40,69.13l-2.71-4.21c-.6-1.2-1.51-2.4-2.1-3.6l-.29-.62a48.46,48.46,0,0,0-10.55,2.11c-3.59,1.53-5.69,3.31-5.69,5.13s2.1,3.59,5.69,4.79C28.28,74.55,34,75.12,40,75.12ZM40,9.67h0a12.31,12.31,0,0,1,9,3.59A12.55,12.55,0,0,1,52.34,22,13.25,13.25,0,0,1,49,31a12.27,12.27,0,0,1-9,3.59A12.75,12.75,0,0,1,31,31a13.25,13.25,0,0,1-3.31-9A12.55,12.55,0,0,1,31,13.26a12.79,12.79,0,0,1,9-3.59Zm6.92,5.7h0a8.73,8.73,0,0,0-6.92-3,7.79,7.79,0,0,0-6.63,3,8.13,8.13,0,0,0-3,6.61,8.74,8.74,0,0,0,3,6.9,8.61,8.61,0,0,0,6.63,3,9.73,9.73,0,0,0,6.92-3,9.9,9.9,0,0,0,3-6.9,9.19,9.19,0,0,0-3-6.61Zm-4.84,45H37.92L40,64Zm1.54-2.68h0c2.68-4.84,6.3-11.12,9-16.82,3.3-6.9,5.7-13.85,5.7-18A18.68,18.68,0,0,0,52.92,10,17.93,17.93,0,0,0,40,4.83,18,18,0,0,0,21.67,22.89c0,3.6,1.78,8.68,3.88,14.09,3.31,7.24,7.53,15,10.83,20.75h7.24ZM33.37,58h0A213,213,0,0,1,23.16,37.89c-2.4-5.7-4.22-11.11-4.22-15A21.07,21.07,0,0,1,55,8.14a21.26,21.26,0,0,1,6,14.75c0,4.8-2.42,11.69-5.73,18.88-2.7,5.75-6,11.45-8.72,16.25a39.26,39.26,0,0,1,10,2.39c4.79,1.78,7.81,4.51,7.81,7.53s-3,5.7-7.81,7.47c-4.22,1.82-10,2.73-16.56,2.73-6.3,0-12.34-.91-16.55-2.73-4.79-1.77-7.82-4.5-7.82-7.47s3-5.75,7.82-7.53A39.22,39.22,0,0,1,33.37,58Z"/></svg>