<svg id="Camada_1" data-name="Camada 1" xmlns="http://www.w3.org/2000/svg" viewBox="0 0 180.68 77.17"><defs><style>.cls-1{fill:#17479e;}.cls-2{fill:#fff;}</style></defs><title>marca-carrier</title><g id="layer1"><g id="g1488"><path id="path1490" class="cls-1" d="M8.12,38.58C8.12,19.87,44.93,4.7,90.34,4.7s82.22,15.18,82.22,33.88S135.75,72.47,90.34,72.47,8.12,57.3,8.12,38.58"/></g><g id="g1492"><path id="path1494" class="cls-2" d="M11.38,38.58c0-16.6,35.36-30,79-30s79,13.46,79,30.05S134,68.64,90.34,68.64s-79-13.45-79-30.06"/></g><g id="g1496"><path id="path1498" class="cls-1" d="M12.22,38.58c0-15.71,35-28.46,78.12-28.46s78.12,12.75,78.12,28.46-35,28.48-78.12,28.48S12.22,54.31,12.22,38.58"/></g><g id="g1500"><path id="path1502" class="cls-2" d="M47.48,47a14.75,14.75,0,0,0,5.35-3.5.8.8,0,0,0,0-1h0a.73.73,0,0,0-1-.07,14.4,14.4,0,0,1-3.43,2.32,8.7,8.7,0,0,1-5.72,1c-4.3-.94-5.19-5.8-3.26-10.7,1.34-3.38,4.81-10.43,13.1-10.29.85,0,1.89.1,1.56,1.07a2.35,2.35,0,0,0-.18,1.61,2,2,0,0,0,2.09,1.48,2.48,2.48,0,0,0,2.62-2.09,3.31,3.31,0,0,0-1.16-2.66,7.32,7.32,0,0,0-4.23-1.21h-1c-7.64.18-17.4,6-18.61,15.91-.69,5.65,4.45,11.56,14,8.18"/></g><g id="g1504"><path id="path1506" class="cls-2" d="M127.2,31.88c1.15,0,1.48,1.34,1.39,2.14a5.36,5.36,0,0,1-2.7,4.19,8.93,8.93,0,0,1-4.75,1.12c.63-2.4,3.38-7.45,6.06-7.45m5,2.5c0-3-2.41-4-4.57-4.06-5.86-.3-11.35,5.2-11.35,11.76a5.85,5.85,0,0,0,6.09,6.27,10,10,0,0,0,6.86-3.13c.39-.39.74-.78,1-1.1a.69.69,0,0,0,0-.86h0a.69.69,0,0,0-1-.07l-.37.33c-.29.26-.65.58-1.06.9l-.35.26h0l-.18.13-.09.06-.09.06a6.6,6.6,0,0,1-2.82,1.1c-2.32.26-3.88-.89-3.91-3.07a8.33,8.33,0,0,1,.37-2.14c3,.09,11.46-.82,11.46-6.44"/></g><g id="g1508"><path id="path1510" class="cls-2" d="M67.93,33.28c-.28,3.25-5,12.47-7.91,11.36s0-6.44,1-8.2,3.49-4.65,5.48-4.64a1.39,1.39,0,0,1,1.41,1.48m1.29-3-.44,1,0,0a4.37,4.37,0,0,0-2.79-1c-2.54,0-5.64,2.08-7.54,4.19a14.38,14.38,0,0,0-3.68,8.85c-.09,2.19.77,3.65,2.75,4.17,1.77.47,4.38-.65,6.7-3.72a5.62,5.62,0,0,0,0,2.42,1.92,1.92,0,0,0,1.68,1.4A4,4,0,0,0,68,47.1a12.56,12.56,0,0,0,4.29-4.2.58.58,0,0,0-.15-.81h0a.58.58,0,0,0-.8.14,11.69,11.69,0,0,1-2,2.37.92.92,0,0,1-.53.21c-.3,0-.38-.45-.36-.71a16.22,16.22,0,0,1,.74-2.82s2.39-6.94,3.19-9.51l.42-1.28a.25.25,0,0,0-.24-.33h-3.1a.17.17,0,0,0-.19.12"/></g><g id="g1512"><path id="path1514" class="cls-2" d="M113.9,30.15a.42.42,0,0,1,.39.55c-1,3-4,12.66-4.22,13.23-.36,1.1.55,1.12.94.9a8.4,8.4,0,0,0,2.33-2.27l.22-.31a.65.65,0,0,1,.88-.16h0a.63.63,0,0,1,.17.86c-1.07,1.62-2.73,3.56-4.43,4.24a3.08,3.08,0,0,1-3.26-.2c-.55-.48-1.23-1.53-.59-3.59s3.46-10.95,4.09-12.89a.54.54,0,0,1,.51-.37"/></g><g id="g1516"><path id="path1518" class="cls-2" d="M113.49,28.25a2.57,2.57,0,0,0,2.57-2,1.83,1.83,0,0,0-2-2,2.57,2.57,0,0,0-2.57,2,1.83,1.83,0,0,0,2,2"/></g><g id="g1520"><path id="path1522" class="cls-2" d="M90.73,31.71a2,2,0,0,0-1.51-1.66,2,2,0,0,0-.35-.07c-2.93-.37-5.19,2.79-6.72,5.91l-.12,0a26.2,26.2,0,0,0,.86-3.26c.32-1.8-.53-2.55-1.19-2.65a3.85,3.85,0,0,0-2.43.7,15.74,15.74,0,0,0-3.77,4l-.25.37a.57.57,0,0,0,.17.79l0,0a.55.55,0,0,0,.76-.18l.1-.15A15.59,15.59,0,0,1,78,33.33a3.3,3.3,0,0,1,1.43-1.06c.38,0,.29.36.24.55-.61,2-3.62,12-4.25,14.11a.29.29,0,0,0,.28.37l3.19,0a.3.3,0,0,0,.28-.22c.89-2.91,1.38-4.09,1.74-5.26a30.23,30.23,0,0,1,1.92-4.73c.57-1.1,1.11-1.92,1.39-2.38.86-1.37,1.4-1.72,2-2,.17-.07.29,0,.34.11s-.23.52-.28.87A1.34,1.34,0,0,0,87,35a2.59,2.59,0,0,0,3-.75,3.08,3.08,0,0,0,.76-2.52"/></g><g id="g1524"><path id="path1526" class="cls-2" d="M107.14,31.71A2.14,2.14,0,0,0,105.28,30c-2.92-.37-5.19,2.79-6.73,5.91l-.11,0a26.2,26.2,0,0,0,.86-3.26c.33-1.8-.53-2.55-1.19-2.65a3.84,3.84,0,0,0-2.43.7,15.74,15.74,0,0,0-3.77,4l-.25.37a.58.58,0,0,0,.17.79l0,0a.57.57,0,0,0,.77-.18l.09-.15a16.38,16.38,0,0,1,1.72-2.14,3.26,3.26,0,0,1,1.44-1.06c.37,0,.28.36.23.55-.6,2-3.62,12-4.25,14.11a.29.29,0,0,0,.29.37l3.17,0a.3.3,0,0,0,.29-.22C96.5,44.19,97,43,97.35,41.84a31.24,31.24,0,0,1,1.92-4.73,26.74,26.74,0,0,1,1.4-2.38c.85-1.37,1.39-1.72,2-2,.17-.07.29,0,.34.11s-.23.52-.28.87a1.34,1.34,0,0,0,.72,1.24,2.6,2.6,0,0,0,3-.75,3.08,3.08,0,0,0,.76-2.52"/></g><g id="g1528"><path id="path1530" class="cls-2" d="M149.38,31.71a2,2,0,0,0-1.52-1.66,1.86,1.86,0,0,0-.34-.07c-2.93-.37-5.19,2.79-6.73,5.91l-.11,0a23.91,23.91,0,0,0,.85-3.26c.33-1.8-.52-2.55-1.18-2.65a3.84,3.84,0,0,0-2.43.7,15.39,15.39,0,0,0-3.77,4c-.08.12-.17.24-.25.37a.56.56,0,0,0,.17.79l0,0a.57.57,0,0,0,.77-.18l.09-.15a15.59,15.59,0,0,1,1.72-2.14,3.24,3.24,0,0,1,1.43-1.06c.37,0,.29.36.23.55-.59,2-3.62,12-4.24,14.11a.28.28,0,0,0,.28.37l3.18,0a.31.31,0,0,0,.29-.22c.89-2.91,1.37-4.09,1.74-5.26a30.23,30.23,0,0,1,1.92-4.73c.56-1.1,1.11-1.92,1.39-2.38.86-1.37,1.4-1.72,2-2,.18-.07.29,0,.35.11s-.23.52-.28.87a1.34,1.34,0,0,0,.72,1.24,2.58,2.58,0,0,0,3-.75,3.09,3.09,0,0,0,.77-2.52"/></g></g></svg>