<svg id="Camada_1" data-name="Camada 1" xmlns="http://www.w3.org/2000/svg" viewBox="0 0 236.09 77.17"><defs><style>.cls-1{fill:#f04d24;}.cls-1,.cls-2{fill-rule:evenodd;}.cls-2{fill:#034da2;}</style></defs><title>marca-gree</title><path id="path29557" class="cls-1" d="M59.49,35.89a18.55,18.55,0,0,1,.24,2.69c0,11.89-11.72,21.56-26.06,21.56a28.65,28.65,0,0,1-6.13-.62c.82-1.7,2.64-5.5,5.61-12.34,4.33-10-3.5-10.41-3.5-10.41l.17-.88Z"/><path id="path29561" class="cls-2" d="M33.67,17c11.58,0,21.41,6.3,24.78,15H30.34L18.86,56.31c-6.76-3.93-11.2-10.4-11.2-17.73C7.66,26.71,19.34,17,33.67,17"/><path id="path29577" class="cls-2" d="M228.44,25.79H207.27S193,25.14,191.2,40.38s5.93,17.72,13.43,17.72h16.64l1.08-4.22H207.43s-7.17-.62-6.09-10.93a2,2,0,0,0,0-.22H223l1.17-3.68H202c1.55-7.22,4.92-9.52,9.77-9.52h15.53Zm-36.25,0H171S156.75,25.14,155,40.38s5.92,17.72,13.42,17.72H185l1.08-4.22H171.18S164,53.26,165.08,43a.68.68,0,0,0,0-.22h21.6l1.16-3.68H165.71c1.55-7.22,4.94-9.52,9.79-9.52H191Zm-73.2,0h25.43s10.4-.41,8.72,8.19-9,9-10.65,9l8.27,15.22h-7.52s-4,1.26-7.43-5.15-7.51-14-7.51-14h7.51s5.41.16,6.93-4-1.61-5.18-4.15-5.18h-9.88l-7.77,28.57H110.3Zm-5.52-.1H88.27s-13.48-.25-17.66,15.15c0,0-5.38,15.42,10.45,17.25H99.75s5.77,1,8.18-8.54,2.6-10.63,2.6-10.63H92.37L91,43.28h8.53l-2.19,7.61s-.57,2.78-2.85,2.93-8.11,0-8.11,0-5.27.27-5.77-5.59,2.51-18,12-18h19.42Z"/></svg>