<svg id="Camada_1" data-name="Camada 1" xmlns="http://www.w3.org/2000/svg" xmlns:xlink="http://www.w3.org/1999/xlink" viewBox="0 0 169.98 77.17"><defs><style>.cls-1{fill:#6d6e70;}.cls-2{fill:url(#Gradiente_sem_nome_4);}.cls-3{fill:url(#Gradiente_sem_nome_2);}.cls-4{fill:url(#Gradiente_sem_nome_3);}.cls-5{fill:#626d77;}.cls-6{fill:#8699a3;}.cls-7{fill:#8d9aa1;}.cls-8{fill:url(#Gradiente_sem_nome_5);}.cls-9{fill:#505c61;}.cls-10{fill:#8f9ca4;}.cls-11{fill:url(#Gradiente_sem_nome_7);}.cls-12{fill:url(#Gradiente_sem_nome_8);}.cls-13{fill:#b4bdc3;}.cls-14{fill:url(#Gradiente_sem_nome_10);}.cls-15{fill:#fff;}</style><radialGradient id="Gradiente_sem_nome_4" cx="-510.89" cy="4554.2" r="0.2" gradientTransform="translate(88810.37 -791282.47) scale(173.76)" gradientUnits="userSpaceOnUse"><stop offset="0" stop-color="#bf0c3f"/><stop offset="0.5" stop-color="#bf0c3f"/><stop offset="0.88" stop-color="#bf0c3f"/><stop offset="1" stop-color="#99002c"/></radialGradient><linearGradient id="Gradiente_sem_nome_2" x1="-496.6" y1="4525.52" x2="-496.4" y2="4525.52" gradientTransform="matrix(87.92, 241.56, 241.56, -87.92, -1049500.08, 517857.36)" gradientUnits="userSpaceOnUse"><stop offset="0" stop-color="#f38895"/><stop offset="0.55" stop-color="#bf0c3f"/><stop offset="0.8" stop-color="#bf0c3f"/><stop offset="1" stop-color="#bf0c3f"/></linearGradient><linearGradient id="Gradiente_sem_nome_3" x1="-501.26" y1="4520.19" x2="-501.06" y2="4520.19" gradientTransform="matrix(201.66, 201.66, 201.66, -201.66, -810455.74, 1012669.44)" gradientUnits="userSpaceOnUse"><stop offset="0" stop-color="#cd425c"/><stop offset="0.33" stop-color="#900531"/><stop offset="1" stop-color="#900531"/></linearGradient><linearGradient id="Gradiente_sem_nome_5" x1="-403.53" y1="3240.65" x2="-403.33" y2="3240.65" gradientTransform="matrix(3.26, 0, 0, -3.26, 1362.34, 10602.89)" gradientUnits="userSpaceOnUse"><stop offset="0" stop-color="#b3bbc1"/><stop offset="0.84" stop-color="#2a3236"/><stop offset="1" stop-color="#2a3236"/></linearGradient><linearGradient id="Gradiente_sem_nome_7" x1="-501.24" y1="4539.26" x2="-501.04" y2="4539.26" gradientTransform="translate(1014980.22 -813081.09) rotate(45) scale(284.77)" gradientUnits="userSpaceOnUse"><stop offset="0" stop-color="#b4bdc3"/><stop offset="1" stop-color="#3e454d"/></linearGradient><linearGradient id="Gradiente_sem_nome_8" x1="-514.27" y1="4513.09" x2="-514.07" y2="4513.09" gradientTransform="translate(-131391.19 1153680.69) rotate(180) scale(255.62)" gradientUnits="userSpaceOnUse"><stop offset="0" stop-color="#b4bdc3"/><stop offset="1" stop-color="#485159"/></linearGradient><radialGradient id="Gradiente_sem_nome_10" cx="-511.12" cy="4509.56" r="0.2" gradientTransform="matrix(213.28, 0, 0, -213.28, 109041.59, 961823.79)" gradientUnits="userSpaceOnUse"><stop offset="0" stop-color="#fff"/><stop offset="0.35" stop-color="#fff"/><stop offset="0.67" stop-color="#fff"/><stop offset="1" stop-color="#c0ccd2"/></radialGradient></defs><title>marca-lg</title><path id="path14" class="cls-1" d="M98.7,17H88.81V59.79h30.35V51.46H98.7Z"/><g id="g18"><g id="g24"><path id="path26" class="cls-1" d="M140.9,43.49h8V51a22.51,22.51,0,0,1-7.12,1.14c-8.9,0-11.86-4.53-11.86-13.7,0-8.75,2.82-13.9,11.71-13.9,5,0,7.77,1.55,10.09,4.52l6.15-5.65c-3.75-5.36-10.31-7-16.45-7-13.83,0-21.1,7.56-21.1,22s6.56,22.09,21,22.09c6.64,0,13.13-1.69,16.66-4.16V35.51H140.9Z"/></g></g><g id="g30"><g id="g36"><g id="g38"><path id="path50" class="cls-2" d="M7.87,38.59A33.07,33.07,0,0,0,40.93,71.66h0A33.08,33.08,0,0,0,74,38.84h0v-.52A33.08,33.08,0,0,0,40.93,5.51h0A33.07,33.07,0,0,0,7.87,38.59"/></g></g></g><g id="g54"><g id="g60"><g id="g62"><path id="path74" class="cls-3" d="M18.55,16.19C7.49,27.25,6.38,44.09,16.08,53.8h0c9.71,9.7,26.54,8.59,37.6-2.47h0c11.07-11.08,12.19-27.92,2.49-37.62h0A23,23,0,0,0,39.63,7.09h0a30.15,30.15,0,0,0-21.08,9.1"/></g></g></g><g id="g78"><g id="g84"><g id="g86"><path id="path96" class="cls-4" d="M41.24,10.74l-.69.23C25,11,13.36,24,13.36,39.42h0a27.82,27.82,0,0,0,8.26,19.83h0a27.8,27.8,0,0,0,19.9,8h0a28.09,28.09,0,0,0,20-8.15h0a27.77,27.77,0,0,0,8.26-19.83h0V37.64l-.67-.58H48.61v3.28l.51.68a.26.26,0,0,0,.18.06H66.42A24.93,24.93,0,0,1,41.57,64.18h0A24.9,24.9,0,0,1,24,56.92h0a24.52,24.52,0,0,1-7.27-17.5h0A24.63,24.63,0,0,1,23.82,21.8h0A25.13,25.13,0,0,1,41.6,14.52h0l1.35,0h.15c.09,0,.17,0,.17-.22h0V11.6a.5.5,0,0,0-.07-.29h0l-.6-.76ZM40.19,24.57h-.14v0l-.21.06.21.33V52.94l-.82.47.63.44a.89.89,0,0,0,.47.14h9.19a.21.21,0,0,0,.19-.22h0V51.21a.45.45,0,0,0-.07-.31h0l-.49-.76h-6l0-25.44a.28.28,0,0,0-.07-.21h0l-.44-.77Zm-13.84,4a4.43,4.43,0,0,0,4.45,4.41h0a4.43,4.43,0,0,0,4.44-4.41h0a4.43,4.43,0,0,0-4.44-4.42h0a4.43,4.43,0,0,0-4.45,4.42"/></g></g></g><g id="g100"><g id="g106"><path id="path108" class="cls-5" d="M39.91,52.77l-.68.64h9.92l-.64-.66Z"/></g><g id="g110"><path id="path112" class="cls-6" d="M48.51,50.77l.64-.63H42.66l-.77.63Z"/></g><g id="g114"><path id="path116" class="cls-7" d="M42.66,23.72H39.23l.64.62h2.06Z"/></g></g><g id="g142"><g id="g148"><g id="g150"><path id="path160" class="cls-8" d="M48.51,50.77v2l.64.66V50.14Z"/></g></g></g><g id="g196"><g id="g202"><path id="path204" class="cls-9" d="M66.28,39.6l-17.15,0-.63.68H65.62l.34-.36Z"/></g><g id="g210"><path id="path212" class="cls-10" d="M49.13,37.64l19.18,0L69,37H48.5Z"/></g></g><g id="g216"><g id="g222"><g id="g224"><path id="path232" class="cls-11" d="M12.9,38.58A27.89,27.89,0,0,0,21.11,58.4h0a27.83,27.83,0,0,0,19.8,8.22h0A27.86,27.86,0,0,0,60.75,58.4h0A27.84,27.84,0,0,0,69,38.58h0V37l-.65.65v1a27.2,27.2,0,0,1-8,19.36h0a27.18,27.18,0,0,1-19.39,8h0a27.13,27.13,0,0,1-19.34-8h0a27.23,27.23,0,0,1-8-19.36h0a27.41,27.41,0,0,1,27.36-27.4H42l.64-.62-1.69,0a28.06,28.06,0,0,0-28,28.05"/></g></g></g><g id="g236"><g id="g242"><g id="g244"><path id="path252" class="cls-12" d="M40.55,13.19A25.29,25.29,0,0,0,23,20.62h0a25.26,25.26,0,0,0-7.42,18h0a25.28,25.28,0,0,0,7.42,18h0A25.25,25.25,0,0,0,40.6,64h.65a25.46,25.46,0,0,0,25-23.67h0l0-.7-.33.29-.34.36A24.83,24.83,0,0,1,40.93,63.33h0a24.59,24.59,0,0,1-17.5-7.26h0A24.56,24.56,0,0,1,16.2,38.58h0a24.59,24.59,0,0,1,7.23-17.51h0a24.68,24.68,0,0,1,17.5-7.24h0l1.67,0L42,13.2H40.55Z"/></g></g></g><g id="g256"><g id="g262"><path id="path264" class="cls-13" d="M49.13,37.64,48.5,37v3.29l.63-.68Z"/></g></g><g id="g290"><g id="g296"><g id="g298"><path id="path310" class="cls-14" d="M40.56,10.88a27.72,27.72,0,0,0-27.32,27.7h0a27.53,27.53,0,0,0,8.1,19.57h0A27.49,27.49,0,0,0,40.9,66.26h0a27.49,27.49,0,0,0,19.59-8.11h0a27.49,27.49,0,0,0,8.1-19.57h0V37.32H48.83v2.57H66v.38h0a25.15,25.15,0,0,1-25,23.41h0a25,25,0,0,1-17.75-7.36h0a25,25,0,0,1-7.33-17.74h0a25,25,0,0,1,7.33-17.76h0a25.07,25.07,0,0,1,17.75-7.34h1.33V10.9l-1,0h-.64Zm-1,13.19v29h9.21V50.48H42.24V24.07Z"/></g></g></g><g id="g338"><g id="g344"><path id="path346" class="cls-15" d="M31.08,24.77a3.91,3.91,0,0,1,2.41.84,4,4,0,1,0-5.56,5.52,3.93,3.93,0,0,1-.83-2.39,4,4,0,0,1,4-4"/></g><g id="g348"><path id="path350" class="cls-15" d="M42.23,10.9l-1.33,0A27.7,27.7,0,0,0,21.34,58.15l.51.49a27.51,27.51,0,0,1-7.64-19.09c0-15.24,10.79-27.89,28-28.65"/></g><g id="g352"><path id="path354" class="cls-15" d="M42.23,50.48a27.05,27.05,0,0,0,6.58.55v-.55Z"/></g><g id="g356"><path id="path358" class="cls-15" d="M42.23,24.89v-.82H39.6v29s.82-4.41.82-28.17Z"/></g><g id="g360"><path id="path362" class="cls-15" d="M68.59,37.31H48.83v2.57h.72V38c17.22,0,19-.72,19-.72"/></g><g id="g364"><path id="path366" class="cls-15" d="M66,39.89c0,.06,0,.33,0,.38a25.1,25.1,0,0,1-49.21,5.07A25.43,25.43,0,0,0,41.34,64a25.14,25.14,0,0,0,25-24.09Z"/></g></g></svg>