<svg id="Camada_1" data-name="Camada 1" xmlns="http://www.w3.org/2000/svg" viewBox="0 0 180.68 77.17"><defs><style>.cls-1{fill-rule:evenodd;}</style></defs><title>marca-philco</title><g id="layer1"><path id="path116-6-0" class="cls-1" d="M157.52,27.37H158l.46,0,.46,0,.45,0,.45.05.44.06.44.07.43.07.43.09.42.1.42.11.41.12.41.13.41.14.4.15.39.16.4.17.38.19.39.19.38.2.37.22.38.22.37.24.36.24.36.26.36.27.35.27.35.29.34.3.35.31.33.33.34.33.33.34.31.34.31.35.29.35.29.36.27.36.26.36.25.37.25.37.23.37.22.38.21.38.2.39.19.39.18.39.16.4.16.41.15.41.14.41.13.42.12.42.1.42.1.43.09.44.07.44.07.44.06.45,0,.46,0,.46,0,.46v1.89l0,.47,0,.46,0,.45-.06.45-.07.45-.07.44-.09.44-.09.43-.11.42-.12.43-.13.41-.13.42-.15.4-.16.41-.17.4-.17.39-.19.39-.2.39-.21.38L173,55l-.23.37-.24.37-.25.37-.26.36-.27.36-.28.35-.29.35-.31.35-.31.34-.33.34-.33.33-.33.32-.34.31-.35.3-.35.29-.35.27-.35.27-.36.25-.37.25-.36.23-.37.22-.38.22-.38.2-.38.19-.39.18-.4.17-.4.16-.4.15-.4.14-.42.13-.41.12-.42.11-.43.09-.43.09-.44.08-.44.07-.44.06-.45,0-.46,0-.46,0-.47,0h-.94l-.46,0-.46,0-.46,0-.45,0-.45-.06-.44-.07-.43-.08-.43-.09-.43-.09-.42-.11-.42-.12-.41-.13-.4-.14-.41-.15-.39-.16-.4-.17-.39-.18-.38-.19-.38-.21-.38-.21-.37-.22-.37-.23-.36-.25-.36-.25-.36-.27-.35-.27-.35-.29-.34-.3-.34-.31-.34-.32-.33-.33-.33-.34-.31-.34-.31-.35-.29-.35-.29-.35-.27-.36-.26-.36-.25-.37-.24-.37L142,55l-.22-.38-.21-.38-.2-.39-.19-.39-.18-.39-.17-.4-.15-.41-.15-.4-.14-.42-.13-.41-.12-.43-.1-.42-.1-.43-.09-.44-.07-.44-.07-.45-.06-.45,0-.45,0-.46,0-.47V44.7l0-.47,0-.46,0-.46.06-.45.07-.44.07-.45.09-.43.1-.43.11-.43.11-.42.13-.42.14-.41.15-.41.16-.41.16-.4.18-.39.19-.39.2-.39.21-.38.22-.38.23-.38.24-.37.26-.36.26-.37.27-.35.29-.36.29-.35.31-.35.31-.34.33-.34.33-.33.34-.32.34-.31.35-.3.35-.29.35-.27.36-.27.36-.26.37-.24.36-.23.38-.23.37-.21.39-.2.38-.2.39-.18.39-.17.4-.16.4-.15.41-.14.41-.13.41-.12.42-.11.43-.1.43-.08.43-.08.44-.07.44-.06.45-.05.45,0,.46,0h.93Zm0,10h-.41l-.39,0-.38.05-.38.07-.37.08-.37.11-.36.12-.35.15-.34.16-.34.18-.33.21-.32.21-.3.24-.3.25-.29.27-.29.29-.27.3-.25.31-.23.32-.22.33-.2.34-.19.34-.16.36-.15.36-.13.37-.12.38-.09.39-.08.39-.06.4-.05.4,0,.41v.83l0,.4.05.4,0,.4.08.39.1.38.11.37.13.37.15.36.17.35.18.35.2.33.22.33.24.31.25.3.26.29.28.29.29.26.3.25.31.24.32.21.32.2.34.18.34.16.36.14.36.13.37.1.37.08.38.07.39,0,.39,0,.41,0,.76,0,.76-.11.73-.19.71-.27.68-.35.64-.42.61-.49.55-.55.28-.3.25-.31.24-.32.21-.32.21-.33.18-.35.17-.34.15-.36.13-.36.11-.38.1-.38.08-.38.06-.39,0-.39,0-.4v-.81l0-.41,0-.4-.06-.39-.08-.39-.09-.38-.12-.38-.13-.36-.15-.37-.17-.35-.18-.34-.2-.34-.22-.33-.23-.32-.25-.31-.28-.31-.56-.55-.6-.5-.64-.43-.68-.35-.71-.28-.74-.2-.76-.11-.76,0Z"/><path id="path118-9-9" class="cls-1" d="M130,63.79l-.48,0-.47,0-.46,0-.46,0-.46-.06-.44-.08-.44-.08-.44-.1-.42-.1-.43-.12-.41-.12-.41-.14-.4-.14-.4-.16-.39-.16-.38-.17-.38-.18-.37-.2-.37-.2-.36-.21-.35-.23L121,61l-.35-.24-.34-.25-.33-.27-.33-.27-.32-.28-.32-.3-.31-.3-.31-.32-.29-.32-.29-.33-.28-.33-.27-.34-.26-.35-.26-.35-.24-.36-.23-.36-.22-.37-.21-.38-.21-.38-.19-.39-.19-.4-.17-.4-.17-.41-.16-.42-.14-.42-.14-.43-.13-.43-.12-.44-.11-.45-.1-.46-.09-.46-.08-.48-.07-.47-.07-.49,0-.49,0-.49,0-.51,0-.51,0-.52v-1l0-.49,0-.49,0-.47.05-.47,0-.47.07-.46.07-.45.09-.44.09-.44.11-.43.11-.42.13-.42.13-.41.14-.41.16-.4.16-.39.17-.39.19-.38.19-.38.2-.36.22-.37.22-.36.23-.35.25-.34.25-.35.26-.33.28-.33.28-.33.29-.32.31-.31.31-.31.32-.3.33-.29.34-.28.34-.27.35-.27.35-.25.36-.24.36-.24.37-.22.38-.22.38-.2.39-.2.39-.18.41-.18.4-.17.42-.15.42-.15.43-.14.43-.13.44-.12.45-.11.45-.1.47-.09.46-.09.48-.07.48-.06.49-.06.49,0,.51,0,.51,0h1.76l.36,0,.36,0,.36,0,.35,0,.36,0,.36,0,.35.05.35.06.34.07.35.07.34.09.16,0V38l-.13,0-.39-.08-.37-.08-.36-.06-.33-.06-.32-.06-.33,0-.31,0-.31,0-.3,0-.3,0h-1.07l-.48,0-.48,0-.47.06-.45.07-.44.09-.44.1-.42.12-.41.14-.4.16-.38.18-.38.19-.36.21-.35.23-.33.25-.32.26-.3.29-.29.3-.26.31-.24.32-.23.34-.2.36-.19.36-.16.38-.15.38L124,43l-.1.41-.09.42-.06.42-.05.44,0,.44V46l0,.44.05.43.07.42.09.41.11.41.13.39.15.39.18.38.19.36.21.36.24.34.25.33.27.32.29.3.31.29.33.28.34.26.35.24.37.22.37.2.39.19.4.16.41.15.42.13.43.12.44.09.45.08.46.06.46,0,.48,0h1.34l.29,0,.3,0,.31,0,.31,0,.32,0,.32,0,.35,0,.35,0,.37-.05.17,0v9.73l-.31.06-.42.08-.41.07-.42.07-.41.06-.43,0-.42.06-.41,0-.42,0-.42,0-.42,0H130Z"/><path id="path120-0-2" class="cls-1" d="M97.33,63.24V13.3h9.91V63.24Z"/><path id="path122-0-5" class="cls-1" d="M80.1,22.22V13.28H90v8.94Z"/><path id="path124-4-3" class="cls-1" d="M80.1,63.24V28H90V63.24Z"/><path id="path126-0-6" class="cls-1" d="M43.13,63.24V13.3H53V33.45l2.57-2.89.39-.39.41-.37.42-.34.45-.31.47-.29.49-.27.51-.24.25-.1.27-.11.27-.09.28-.09.27-.08.29-.08.29-.06.29-.07.3-.05.3-.05.3,0,.31,0,.32,0h.32l.32,0h.94l.58,0,.56.06.54.08.52.1.49.12.47.15.45.16.43.19.41.21.39.23.37.25.36.27.34.29.32.32.3.33.29.36.27.39.25.41.24.43.22.45.2.48.18.51.17.53.15.56.13.59.11.61.08.63.08.66,0,.69,0,.72v25H63.15V43.64l0-.77L63,42.16l-.1-.66-.13-.61-.17-.57-.21-.53-.27-.48-.32-.44-.39-.39L61,38.16l-.48-.26L60,37.7l-.53-.13-.56-.07-.59,0-.6,0-.59.1-.57.15L56,38l-.5.29-.46.36-.41.41-.36.46L54,40l-.27.55-.22.58-.17.61-.13.65-.09.68-.06.71V63.24Z"/><path id="path128-6-0" class="cls-1" d="M5.2,63.24V13.3H18.94l.66,0,.64,0,.63,0,.62.05.61,0,.6.07.58.07.58.09.56.09.55.1.53.11.53.11.51.13.5.13.49.14.48.15.46.16.46.17.44.17.43.18.42.19.41.2L31,16l.39.21.37.22.36.23.35.24.34.24.33.26.31.26.31.26.3.28.28.29.28.29.27.3.25.32.25.32.24.33.23.34.22.35.21.35.2.37.19.38.18.38.17.4.16.41.16.41.14.43.14.44.12.44.12.46.1.47.1.47.08.49.08.5.07.51,0,.52.05.52,0,.54,0,.55V32l0,.54,0,.52-.05.52,0,.51-.06.5-.08.49-.08.48L38,36l-.11.47-.11.45-.12.45-.13.44-.14.43-.15.43-.16.41-.17.41-.18.4-.19.39-.19.38-.21.38-.21.36-.23.36-.23.36-.25.34-.25.34-.26.33-.28.32-.28.31-.29.31-.3.3-.31.3-.32.28-.32.27-.34.27-.34.25L31.6,46l-.36.23-.36.23-.38.22-.38.21-.39.2-.39.19-.41.18-.41.17-.42.17-.44.15-.44.15-.44.13-.46.13-.47.12-.47.11-.48.1-.5.09-.5.08-.51.07-.52.07-.53,0-.53,0-.55,0-.56,0H16.28V63.24ZM16.28,38.52h3.31l.44,0,.44,0,.42-.05.41-.06.4-.09.4-.09.38-.12.38-.12.36-.15.36-.16.34-.18.32-.2.32-.21.31-.23.29-.24.27-.26.26-.27.24-.29.23-.3.2-.31.19-.33.17-.33.15-.35.13-.35.12-.37.09-.37.08-.39.06-.38,0-.4,0-.41V30.6l0-.42,0-.42-.06-.4-.07-.4-.1-.39L27,28.19l-.13-.36-.15-.36-.16-.35-.19-.33-.2-.33-.23-.3-.24-.3-.26-.28-.27-.26-.29-.25-.3-.23-.32-.22-.33-.2-.35-.18-.35-.17-.37-.14-.38-.13-.4-.11-.4-.1-.41-.08-.42-.07-.43-.05-.45,0-.45,0H16.28V38.51Z"/></g></svg>