<svg id="Camada_1" data-name="Camada 1" xmlns="http://www.w3.org/2000/svg" viewBox="0 0 208.24 77.17"><defs><style>.cls-1{fill:#0059a2;fill-rule:evenodd;}</style></defs><title>marca-samsung</title><path class="cls-1" d="M175.16,45.68c16.11-7.88,25-16.85,23.68-24.28-2.76-15.62-50.09-18.13-98.92-9.46-22.36,4-43.73,9.93-58.2,15.83a10.27,10.27,0,0,1,1.3,0c6.26.17,5.88,4.06,5.88,4.06V34.2h-5V32.59c0-1.15-1.39-1.23-1.39-1.23a1.29,1.29,0,0,0-1.32.73,1.82,1.82,0,0,0,.42,2.06,17.54,17.54,0,0,0,3.11,1.77,18.2,18.2,0,0,1,2.19,1.17,5,5,0,0,1,2.31,4.42v1.91c-.3,4.73-6.83,4.59-6.83,4.59-6.82,0-6.67-4.48-6.67-4.48V41.19h5.31V42.8a1.39,1.39,0,0,0,1.33,1.44A1.48,1.48,0,0,0,44,42.89c.2-1.36-1.31-2.22-1.31-2.22-1.48-.76-4-2.1-4-2.1A6.61,6.61,0,0,1,37,37.05a4.92,4.92,0,0,1-.82-2.83V32.74c0-2.06.55-2.65.55-2.65l.08-.13C18.93,38.2,8,47.76,9.39,55.61c2.81,15.94,47.44,18,99.93,10a243.87,243.87,0,0,0,61.12-17.67h-.35s-6.43.52-6.58-4.67v-10s-.81-5.53,6.4-5.53c0,0,4.69-.15,5.93,2.63,0,0,.62.75.45,3.83h-5V32.54A1.26,1.26,0,0,0,170,31.27s-1.36.06-1.36,1.12V42.77a1.37,1.37,0,1,0,2.73-.1v-3H170V36.88h6.42v5.89a4,4,0,0,1-.53,2,6.74,6.74,0,0,1-.72,1Zm-18.3,1.68H151l-5.25-11.59h-.22l.3,11.59h-4.94V28.42h6.07L152,39.91h.22l-.36-11.5h5v19Zm-31-4.71a1.43,1.43,0,0,0,1.52,1.53c1.45,0,1.38-1.56,1.38-1.56V28.33h5.3V42.79c0,5.21-6.6,5.13-6.6,5.13-7.59,0-7-5.38-7-5.38V28.33h5.41l0,14.32ZM109.26,34.2V32.59c0-1.15-1.39-1.23-1.39-1.23a1.29,1.29,0,0,0-1.32.73,1.82,1.82,0,0,0,.42,2.06,17.2,17.2,0,0,0,3.11,1.77,18.2,18.2,0,0,1,2.19,1.17,5,5,0,0,1,2.31,4.42v1.91c-.31,4.73-6.83,4.59-6.83,4.59-6.82,0-6.68-4.48-6.68-4.48V41.19h5.32V42.8a1.38,1.38,0,0,0,1.32,1.44,1.48,1.48,0,0,0,1.57-1.35c.2-1.36-1.3-2.22-1.3-2.22-1.49-.76-4-2.1-4-2.1a6.39,6.39,0,0,1-1.72-1.52,4.92,4.92,0,0,1-.82-2.83V32.74c0-2.06.55-2.65.55-2.65,1.41-2.65,6.33-2.33,6.33-2.33,6.26.17,5.87,4.06,5.87,4.06l0,2.38ZM83.09,28.41l1.6,10.37h.39l1.67-10.37H95l.54,19h-5l-.12-14.27h-.34L87.53,47.35H82.34L79.73,33.08h-.39l-.06,14.28H74.35l.41-18.95ZM63.74,47.34,61.8,32.65h-.43L59.42,47.34h-5.3l3.27-19h8.38l3.28,19Z"/></svg>