<svg id="Camada_1" data-name="Camada 1" xmlns="http://www.w3.org/2000/svg" viewBox="0 0 208.24 77.17"><defs><style>.cls-1{fill:#ed1c24;}</style></defs><title>marca-fujitsu</title><path class="cls-1" d="M91,12.07a7.31,7.31,0,0,0-4.59-1.58,7.53,7.53,0,1,0,0,15.06,7.39,7.39,0,0,0,5.78-2.62V18.81a8.88,8.88,0,0,1-3.57,3.49,5.12,5.12,0,0,1-2.21.47,4.7,4.7,0,0,1-4.76-4.67,4.7,4.7,0,0,1,8.08-3.33c.88.87,2.3,2.69,2.94,3.41A9.36,9.36,0,1,0,99.52,2.4a9.64,9.64,0,0,0-7.37,3.73v5.63c1.27-3.57,3.65-6.42,7.37-6.42a6.46,6.46,0,1,1-4.2,11.41c-1.27-1.19-2.77-3.49-4.28-4.68"/><path class="cls-1" d="M29.62,27.69H50.3v5.7A4,4,0,0,0,47,31.1H37.47v10H47.85v5.31s-.32-1.66-2.86-1.66H37.47V58.36c0,2,2.14,3.17,2.14,3.17H29.78a3.85,3.85,0,0,0,2.06-3.17V31.17A4.51,4.51,0,0,0,29.62,27.69Z"/><path class="cls-1" d="M81.69,27.69H92.23s-2.38,1.11-2.38,2.93v31.7c0,10.7-10.78,12.44-11.33,12.44,1-.55,5.39-4.35,5.39-12.44V30.62C83.91,28.88,81.69,27.69,81.69,27.69Z"/><path class="cls-1" d="M93.66,27.69H104.2s-2.38,1.11-2.38,3V58.36c0,2,2.38,3.25,2.38,3.25H93.66S96,60.42,96,58.36V30.7C96,28.8,93.66,27.69,93.66,27.69Z"/><path class="cls-1" d="M106.34,27.69h23.22l-2,6.1s-.56-2.62-2.85-2.62H120v27c0,1.74,2.3,3.17,2.3,3.17H111.89s2.22-1.35,2.22-3.17V31.25h-5.79c-1.66,0-4,3.09-4,3.09Z"/><path class="cls-1" d="M168.47,27.69h10.15s-2.14,1.19-2.14,3V51.15c0,8.32-6.9,10.85-11.73,10.85s-12.21-2.61-12.21-10.85V30.7c0-1.82-2.21-3-2.21-3h10.46s-2.3,1.11-2.3,3V51.15c0,4.36,2.85,7.21,6.26,7.21s5.94-3,6-7.21V30.7C170.77,28.8,168.47,27.69,168.47,27.69Z"/><path class="cls-1" d="M69.48,27.69H79.87s-2.22,1.19-2.22,3V51.15c0,8.32-7.21,11-12.05,11s-12.2-2.69-12.2-11V30.7c0-1.82-2.14-3-2.14-3H61.72s-2.46,1.19-2.46,3V51.15c0,4.36,2.85,7.29,6.26,7.29s6.1-3,6.1-7.29V30.7C71.7,28.88,69.48,27.69,69.48,27.69Z"/><path class="cls-1" d="M147.23,33.08s-1.5-2.54-5.7-2.62S135,32.68,135,35.61c0,3.25,2.46,4.52,6.26,6.34,3.65,1.75,9.12,4.12,9,10.23,0,5.47-4.84,10-13.48,10a33.77,33.77,0,0,1-6.34-.87l-2-6.5a13.11,13.11,0,0,0,8.4,3.73c3.41,0,7.53-2.14,7.53-5.55,0-6.58-15.37-5.47-15.37-16.56,0-3.81,2.61-9.36,11.8-9.36a28.24,28.24,0,0,1,6.27.87Z"/></svg>