<svg id="Camada_1" data-name="Camada 1" xmlns="http://www.w3.org/2000/svg" viewBox="0 0 80 80"><defs><style>.cls-1{fill:#fff;}</style></defs><title>telefone</title><path class="cls-1" d="M5.11,21.94c.06-6.77,2.74-13.37,8.42-17.38a10.75,10.75,0,0,1,7.23-2.19c5.28.56,6.67,7.23,7.86,11.56a20.78,20.78,0,0,1,.9,4.74c.14,4.48-3.66,6.6-7.44,7.62-1.3.35-2.69,1-3.11,2.29a4.61,4.61,0,0,0,.49,3.19,95.24,95.24,0,0,0,5.59,11.1,93.68,93.68,0,0,0,10.23,14c1.59,1.83,3.76,4.62,6.22,2.4,1.57-1.4,2.25-3.08,4.15-4.24a7.37,7.37,0,0,1,5.63-1c3.64.9,6.52,3.92,9.15,6.42a15.8,15.8,0,0,1,3.83,4.76c2.06,4.67-2.41,8.92-6.34,10.67a22.8,22.8,0,0,1-13.43,1.38C37.15,75.78,31,70.44,25.7,65.43A69.35,69.35,0,0,1,12.15,46.79c-3.58-6.89-6.42-14.9-7-22.69Q5.1,23,5.11,21.94Z"/><path class="cls-1" d="M73.24,45.52a4.63,4.63,0,0,1-.8.73,3.36,3.36,0,0,1-4,0,4,4,0,0,1-1.28-2.56c-.46-3.16.7-6.26.23-9.45a30.44,30.44,0,0,0-3.06-10A27.66,27.66,0,0,0,47.52,10.81a9.77,9.77,0,0,1-3-1.07,3.41,3.41,0,0,1,.24-5.65c1.51-.94,3.46-.61,5.17-.11A34.53,34.53,0,0,1,74,29.82a34.49,34.49,0,0,1,.56,12.84A6.15,6.15,0,0,1,73.24,45.52Z"/><path class="cls-1" d="M42.18,14.22l.37-.06a8.4,8.4,0,0,1,3.72.6,26.16,26.16,0,0,1,12.81,9.62,25.22,25.22,0,0,1,4.55,15.34,8.06,8.06,0,0,1-1.52,5c-1.15,1.35-3.36,1.92-4.73.79-1.53-1.27-1.17-3.64-1-5.62a17.91,17.91,0,0,0-10.89-18c-2.28-1-7.37-2-5.91-5.7A3.55,3.55,0,0,1,42.18,14.22Z"/><path class="cls-1" d="M36.59,30.08a1.94,1.94,0,0,1-.21-.34,3.42,3.42,0,0,1,1.37-4.34c3.18-1.9,7.86,1.53,10,3.76A16.1,16.1,0,0,1,52,38.53a7.24,7.24,0,0,1-1.2,5.06,3.48,3.48,0,0,1-2.38,1.48,3.47,3.47,0,0,1-3.31-2.5c-.7-2,0-4-.64-6a6.73,6.73,0,0,0-3.24-3.82C39.68,31.89,37.67,31.6,36.59,30.08Z"/></svg>