<svg id="Camada_1" data-name="Camada 1" xmlns="http://www.w3.org/2000/svg" viewBox="0 0 47.63 51.13"><defs><style>.cls-1{fill:#00a500;}.cls-2{fill:#fefefe;}</style></defs><title>WhatsApp</title><path class="cls-1" d="M44.68,25.32A20.92,20.92,0,0,1,26.76,46.21a20.7,20.7,0,0,1-11.93-1.87,1.66,1.66,0,0,0-1.27-.13c-2,.55-4,1.07-6,1.58A3,3,0,0,1,3.8,42q.74-2.88,1.56-5.74A1.6,1.6,0,0,0,5.25,35c-6.44-12.35,1.29-27.8,15-30a20.81,20.81,0,0,1,24,16.17A17,17,0,0,1,44.68,25.32Z"/><path class="cls-2" d="M42.64,25.53A18.88,18.88,0,0,1,26.56,44.19a18.68,18.68,0,0,1-11.24-1.84,2.4,2.4,0,0,0-1.84-.21c-2.07.59-4.16,1.11-6.24,1.64-1.27.33-1.83-.24-1.49-1.51.54-2,1-4,1.62-6a2.32,2.32,0,0,0-.19-1.84A18.84,18.84,0,1,1,42.33,22.11,17.07,17.07,0,0,1,42.64,25.53Z"/><path class="cls-1" d="M9.55,40.08c.3-1.11.51-2.06.82-3a4.92,4.92,0,0,0-.44-4,15.35,15.35,0,0,1,.53-16,15.75,15.75,0,1,1,6,22.47,4.73,4.73,0,0,0-3.57-.37C11.83,39.5,10.75,39.76,9.55,40.08Z"/><path class="cls-2" d="M13.71,21a5.53,5.53,0,0,1,1.82-4.09,2.12,2.12,0,0,1,3.47.7c.39.93.71,1.89,1.17,2.78a1.86,1.86,0,0,1-.32,2.23c-1.21,1.48-1.2,1.49-.12,3.05a13.08,13.08,0,0,0,5.92,4.67A1,1,0,0,0,27,30c.42-.56.88-1.09,1.3-1.65A.82.82,0,0,1,29.42,28c1.3.63,2.62,1.25,3.94,1.86a.89.89,0,0,1,.52.95A4.28,4.28,0,0,1,30.22,35a7.32,7.32,0,0,1-2.91-.2C20.94,33.2,16.81,29,14.12,23.23A5.07,5.07,0,0,1,13.71,21Z"/></svg>